<svg width="254" height="254" viewBox="0 0 254 254" fill="none" xmlns="http://www.w3.org/2000/svg">
<rect width="254" height="254" fill="black"/>
<path d="M78.0058 115.284C78.0058 107.52 78.0058 99.757 78.0058 91.9937C78.0058 90.8645 77.8647 91.0056 78.9704 91.0056C80.7583 91.0056 82.5226 91.0056 84.3106 91.0056C84.9693 91.0056 84.9693 91.0057 84.9693 91.6408C84.9693 91.829 84.9693 92.0172 84.9693 92.1819C84.9693 101.263 84.9693 110.343 84.9693 119.448C84.9693 119.706 84.9693 119.942 84.9693 120.2C84.9693 120.247 84.9928 120.271 85.0164 120.318C85.0399 120.365 85.134 120.318 85.2045 120.271C85.3222 120.153 85.4398 120.059 85.5574 119.942C88.3569 117.236 91.6269 115.284 95.3439 114.084C96.6848 113.66 98.0728 113.355 99.4843 113.143C101.013 112.931 102.543 112.837 104.072 112.931C108.988 113.19 113.458 114.719 117.457 117.636C122.28 121.165 125.456 125.823 127.009 131.587C127.315 132.763 127.526 133.939 127.644 135.162C127.809 136.668 127.832 138.174 127.714 139.679C127.55 142.055 127.032 144.361 126.185 146.596C123.503 153.677 117.528 159.534 109.553 161.769C108.189 162.146 106.801 162.404 105.389 162.546C104.001 162.687 102.613 162.71 101.225 162.616C98.6844 162.452 96.2143 161.887 93.8383 160.946C86.522 158.052 80.97 151.865 78.8998 144.267C78.4999 142.808 78.2411 141.326 78.1234 139.82C78.0529 138.926 78.0294 138.032 78.0294 137.162C78.0294 129.869 78.0294 122.6 78.0294 115.307L78.0058 115.284ZM102.99 155.723C104.378 155.7 105.86 155.559 107.295 155.182C111.741 154.006 115.27 151.512 117.834 147.725C119.434 145.372 120.375 142.784 120.728 139.985C120.869 138.762 120.916 137.538 120.798 136.292C120.657 134.645 120.304 133.045 119.716 131.492C117.128 124.6 110.588 120.036 103.531 119.847C101.884 119.8 100.237 119.942 98.6374 120.342C94.4734 121.4 91.1093 123.635 88.5216 127.046C87.3218 128.622 86.4279 130.363 85.8162 132.245C85.181 134.174 84.9222 136.15 84.9693 138.174C84.9693 139.538 85.181 140.902 85.5104 142.22C87.3924 149.607 94.1441 155.653 102.99 155.723Z" fill="white"/>
<path d="M134.984 137.821C134.984 129.846 134.984 121.894 134.984 113.919C134.984 112.813 134.843 112.931 135.972 112.931C137.76 112.931 139.524 112.931 141.312 112.931C141.994 112.931 141.971 112.955 141.971 113.566C141.971 115.566 141.971 117.589 141.971 119.589C141.971 119.824 141.971 120.036 141.994 120.271C141.994 120.294 142.041 120.342 142.088 120.365H142.135C142.3 120.224 142.441 120.083 142.582 119.942C144.653 117.942 147.005 116.342 149.616 115.142C151.592 114.249 153.663 113.613 155.827 113.26C157.239 113.025 158.627 112.931 160.062 112.931C160.273 112.931 160.461 112.931 160.673 112.955C160.767 112.955 160.861 113.049 160.861 113.119C160.861 113.237 160.861 113.355 160.861 113.449C160.861 115.401 160.861 117.377 160.861 119.33C160.861 119.424 160.861 119.518 160.861 119.612C160.861 119.753 160.791 119.824 160.65 119.848C160.579 119.848 160.509 119.848 160.438 119.848C160.203 119.848 159.991 119.848 159.756 119.848C156.109 119.848 152.769 120.906 149.781 122.953C146.064 125.517 143.618 128.999 142.465 133.351C142.112 134.692 141.924 136.08 141.947 137.468C141.947 145.513 141.947 153.583 141.947 161.628C141.947 161.887 141.947 162.122 141.947 162.381C141.947 162.475 141.853 162.546 141.783 162.569C141.665 162.569 141.547 162.569 141.453 162.569C139.477 162.569 137.477 162.569 135.501 162.569C135.407 162.569 135.313 162.569 135.219 162.569C135.101 162.569 135.007 162.475 135.007 162.334C135.007 162.075 135.007 161.84 135.007 161.581C135.007 153.63 135.007 145.702 135.007 137.75" fill="white"/>
<path d="M175 126.787C175 138.385 175 149.983 175 161.581C175 161.863 175 162.122 175 162.404C175 162.522 174.906 162.616 174.765 162.616C174.67 162.616 174.576 162.616 174.482 162.616C172.506 162.616 170.507 162.616 168.531 162.616C168.036 162.616 168.036 162.616 168.036 162.122C168.036 161.981 168.036 161.84 168.036 161.722C168.036 138.456 168.036 115.213 168.036 91.9466C168.036 91.6878 168.036 91.4526 168.036 91.1938C168.036 91.1232 168.131 91.0291 168.225 91.0291C168.389 91.0291 168.554 91.0291 168.695 91.0291C170.577 91.0291 172.436 91.0291 174.318 91.0291C174.506 91.0291 174.671 91.0291 174.859 91.0762C174.882 91.0762 174.929 91.1232 174.953 91.1703C174.953 91.2408 174.976 91.3114 174.976 91.382C174.976 91.6408 174.976 91.876 174.976 92.1348C174.976 103.709 174.976 115.284 174.976 126.858" fill="white"/>
</svg>
