<svg width="750" height="250" viewBox="0 0 750 250" fill="none" xmlns="http://www.w3.org/2000/svg">
<path d="M276.437 211.45C276.437 210.712 277.038 210.125 277.763 210.125C278.5 210.125 279.088 210.712 279.088 211.45C279.088 212.175 278.5 212.775 277.763 212.775C277.038 212.775 276.437 212.175 276.437 211.45ZM269.713 211.45C269.713 210.712 270.312 210.125 271.037 210.125C271.775 210.125 272.362 210.712 272.362 211.45C272.362 212.175 271.775 212.775 271.037 212.775C270.312 212.775 269.713 212.175 269.713 211.45ZM262.987 211.45C262.987 210.712 263.575 210.125 264.312 210.125C265.037 210.125 265.637 210.712 265.637 211.45C265.637 212.175 265.037 212.775 264.312 212.775C263.575 212.775 262.987 212.175 262.987 211.45ZM256.262 211.45C256.262 210.712 256.85 210.125 257.588 210.125C258.313 210.125 258.913 210.712 258.913 211.45C258.913 212.175 258.313 212.775 257.588 212.775C256.85 212.775 256.262 212.175 256.262 211.45ZM249.538 211.45C249.538 210.712 250.125 210.125 250.85 210.125C251.587 210.125 252.175 210.712 252.175 211.45C252.175 212.175 251.587 212.775 250.85 212.775C250.125 212.775 249.538 212.175 249.538 211.45ZM242.8 211.45C242.8 210.712 243.4 210.125 244.125 210.125C244.85 210.125 245.45 210.712 245.45 211.45C245.45 212.175 244.862 212.775 244.125 212.775C243.4 212.775 242.8 212.175 242.8 211.45Z" fill="#04041F"/>
<path d="M284.487 212.775C284.137 212.775 283.8 212.637 283.55 212.387C283.3 212.15 283.162 211.8 283.162 211.462C283.162 211.125 283.312 210.775 283.55 210.525C284.037 210.025 284.925 210.025 285.425 210.525C285.662 210.775 285.812 211.125 285.812 211.462C285.812 211.8 285.662 212.15 285.425 212.387C285.175 212.637 284.837 212.775 284.487 212.775Z" fill="#04041F"/>
<path d="M276.437 205.425C276.437 204.687 277.038 204.1 277.763 204.1C278.5 204.1 279.088 204.687 279.088 205.425C279.088 206.15 278.5 206.75 277.763 206.75C277.038 206.75 276.437 206.15 276.437 205.425ZM269.713 205.425C269.713 204.687 270.312 204.1 271.037 204.1C271.775 204.1 272.362 204.687 272.362 205.425C272.362 206.15 271.775 206.75 271.037 206.75C270.312 206.75 269.713 206.15 269.713 205.425ZM262.987 205.425C262.987 204.687 263.575 204.1 264.312 204.1C265.037 204.1 265.637 204.687 265.637 205.425C265.637 206.15 265.037 206.75 264.312 206.75C263.575 206.75 262.987 206.15 262.987 205.425ZM256.262 205.425C256.262 204.687 256.85 204.1 257.588 204.1C258.313 204.1 258.913 204.687 258.913 205.425C258.913 206.15 258.313 206.75 257.588 206.75C256.85 206.75 256.262 206.15 256.262 205.425ZM249.538 205.425C249.538 204.687 250.125 204.1 250.85 204.1C251.587 204.1 252.175 204.687 252.175 205.425C252.175 206.15 251.587 206.75 250.85 206.75C250.125 206.75 249.538 206.15 249.538 205.425ZM242.8 205.425C242.8 204.687 243.4 204.1 244.125 204.1C244.85 204.1 245.45 204.687 245.45 205.425C245.45 206.15 244.862 206.75 244.125 206.75C243.4 206.75 242.8 206.15 242.8 205.425Z" fill="#04041F"/>
<path d="M284.487 206.75C284.137 206.75 283.8 206.612 283.55 206.362C283.3 206.125 283.162 205.775 283.162 205.437C283.162 205.1 283.312 204.75 283.55 204.5C284.037 204 284.925 204 285.425 204.5C285.662 204.75 285.812 205.1 285.812 205.437C285.812 205.775 285.662 206.125 285.425 206.362C285.175 206.612 284.837 206.75 284.487 206.75Z" fill="#04041F"/>
<path d="M276.437 217.475C276.437 216.737 277.038 216.15 277.763 216.15C278.5 216.15 279.088 216.737 279.088 217.475C279.088 218.2 278.5 218.8 277.763 218.8C277.038 218.8 276.437 218.2 276.437 217.475ZM269.713 217.475C269.713 216.737 270.3 216.15 271.037 216.15C271.762 216.15 272.362 216.737 272.362 217.475C272.362 218.2 271.762 218.8 271.037 218.8C270.312 218.8 269.713 218.2 269.713 217.475ZM262.987 217.475C262.987 216.737 263.575 216.15 264.312 216.15C265.037 216.15 265.637 216.737 265.637 217.475C265.637 218.2 265.037 218.8 264.312 218.8C263.575 218.8 262.987 218.2 262.987 217.475ZM256.262 217.475C256.262 216.737 256.85 216.15 257.588 216.15C258.313 216.15 258.913 216.737 258.913 217.475C258.913 218.2 258.313 218.8 257.588 218.8C256.85 218.8 256.262 218.2 256.262 217.475ZM249.538 217.475C249.538 216.737 250.125 216.15 250.85 216.15C251.587 216.15 252.175 216.737 252.175 217.475C252.175 218.2 251.587 218.8 250.85 218.8C250.125 218.8 249.538 218.2 249.538 217.475ZM242.8 217.475C242.8 216.737 243.4 216.15 244.125 216.15C244.85 216.15 245.45 216.737 245.45 217.475C245.45 218.2 244.862 218.8 244.125 218.8C243.4 218.8 242.8 218.2 242.8 217.475Z" fill="#04041F"/>
<path d="M284.487 218.787C284.137 218.787 283.8 218.637 283.55 218.4C283.3 218.15 283.162 217.812 283.162 217.462C283.162 217.112 283.312 216.775 283.55 216.525C284.05 216.037 284.925 216.037 285.425 216.525C285.662 216.775 285.812 217.112 285.812 217.462C285.812 217.812 285.662 218.15 285.425 218.4C285.175 218.65 284.837 218.787 284.487 218.787Z" fill="#04041F"/>
<path d="M581.7 25.8375C581.7 25.1 582.3 24.5125 583.025 24.5125C583.763 24.5125 584.35 25.1 584.35 25.8375C584.35 26.5625 583.763 27.1625 583.025 27.1625C582.3 27.1625 581.7 26.5625 581.7 25.8375ZM574.975 25.8375C574.975 25.1 575.575 24.5125 576.3 24.5125C577.038 24.5125 577.625 25.1 577.625 25.8375C577.625 26.5625 577.038 27.1625 576.3 27.1625C575.575 27.1625 574.975 26.5625 574.975 25.8375ZM568.25 25.8375C568.25 25.1 568.838 24.5125 569.575 24.5125C570.3 24.5125 570.9 25.1 570.9 25.8375C570.9 26.5625 570.3 27.1625 569.575 27.1625C568.838 27.1625 568.25 26.5625 568.25 25.8375ZM561.525 25.8375C561.525 25.1 562.112 24.5125 562.85 24.5125C563.575 24.5125 564.175 25.1 564.175 25.8375C564.175 26.5625 563.575 27.1625 562.85 27.1625C562.112 27.1625 561.525 26.5625 561.525 25.8375ZM554.8 25.8375C554.8 25.1 555.388 24.5125 556.113 24.5125C556.85 24.5125 557.438 25.1 557.438 25.8375C557.438 26.5625 556.85 27.1625 556.113 27.1625C555.388 27.1625 554.8 26.5625 554.8 25.8375ZM548.063 25.8375C548.063 25.1 548.663 24.5125 549.388 24.5125C550.113 24.5125 550.713 25.1 550.713 25.8375C550.713 26.5625 550.125 27.1625 549.388 27.1625C548.663 27.1625 548.063 26.5625 548.063 25.8375Z" fill="#04041F"/>
<path d="M589.75 27.15C589.4 27.15 589.062 27.0125 588.812 26.7625C588.562 26.525 588.425 26.175 588.425 25.8375C588.425 25.5 588.575 25.15 588.812 24.9C589.3 24.4 590.187 24.4 590.687 24.9C590.925 25.15 591.075 25.5 591.075 25.8375C591.075 26.175 590.925 26.525 590.687 26.7625C590.437 27.0125 590.1 27.15 589.75 27.15Z" fill="#04041F"/>
<path d="M581.7 19.8125C581.7 19.075 582.3 18.4875 583.025 18.4875C583.763 18.4875 584.35 19.075 584.35 19.8125C584.35 20.5375 583.763 21.1375 583.025 21.1375C582.3 21.1375 581.7 20.5375 581.7 19.8125ZM574.975 19.8125C574.975 19.075 575.575 18.4875 576.3 18.4875C577.037 18.4875 577.625 19.075 577.625 19.8125C577.625 20.5375 577.037 21.1375 576.3 21.1375C575.575 21.1375 574.975 20.5375 574.975 19.8125ZM568.25 19.8125C568.25 19.075 568.837 18.4875 569.575 18.4875C570.3 18.4875 570.9 19.075 570.9 19.8125C570.9 20.5375 570.3 21.1375 569.575 21.1375C568.837 21.1375 568.25 20.5375 568.25 19.8125ZM561.525 19.8125C561.525 19.075 562.112 18.4875 562.85 18.4875C563.575 18.4875 564.175 19.075 564.175 19.8125C564.175 20.5375 563.575 21.1375 562.85 21.1375C562.112 21.1375 561.525 20.5375 561.525 19.8125ZM554.8 19.8125C554.8 19.075 555.388 18.4875 556.113 18.4875C556.85 18.4875 557.438 19.075 557.438 19.8125C557.438 20.5375 556.85 21.1375 556.113 21.1375C555.388 21.1375 554.8 20.5375 554.8 19.8125ZM548.062 19.8125C548.062 19.075 548.662 18.4875 549.387 18.4875C550.112 18.4875 550.712 19.075 550.712 19.8125C550.712 20.5375 550.125 21.1375 549.387 21.1375C548.662 21.1375 548.062 20.5375 548.062 19.8125Z" fill="#04041F"/>
<path d="M589.75 21.125C589.4 21.125 589.062 20.9875 588.812 20.7375C588.562 20.5 588.425 20.15 588.425 19.8125C588.425 19.475 588.575 19.125 588.812 18.875C589.3 18.375 590.187 18.375 590.687 18.875C590.925 19.125 591.075 19.475 591.075 19.8125C591.075 20.15 590.925 20.5 590.687 20.7375C590.437 20.9875 590.1 21.125 589.75 21.125Z" fill="#04041F"/>
<path d="M581.7 31.8625C581.7 31.125 582.3 30.5375 583.025 30.5375C583.763 30.5375 584.35 31.125 584.35 31.8625C584.35 32.5875 583.763 33.1875 583.025 33.1875C582.3 33.1875 581.7 32.5875 581.7 31.8625ZM574.975 31.8625C574.975 31.125 575.563 30.5375 576.3 30.5375C577.025 30.5375 577.625 31.125 577.625 31.8625C577.625 32.5875 577.025 33.1875 576.3 33.1875C575.575 33.1875 574.975 32.5875 574.975 31.8625ZM568.25 31.8625C568.25 31.125 568.838 30.5375 569.575 30.5375C570.3 30.5375 570.9 31.125 570.9 31.8625C570.9 32.5875 570.3 33.1875 569.575 33.1875C568.838 33.1875 568.25 32.5875 568.25 31.8625ZM561.525 31.8625C561.525 31.125 562.112 30.5375 562.85 30.5375C563.575 30.5375 564.175 31.125 564.175 31.8625C564.175 32.5875 563.575 33.1875 562.85 33.1875C562.112 33.1875 561.525 32.5875 561.525 31.8625ZM554.8 31.8625C554.8 31.125 555.388 30.5375 556.113 30.5375C556.85 30.5375 557.438 31.125 557.438 31.8625C557.438 32.5875 556.85 33.1875 556.113 33.1875C555.388 33.1875 554.8 32.5875 554.8 31.8625ZM548.063 31.8625C548.063 31.125 548.663 30.5375 549.388 30.5375C550.113 30.5375 550.713 31.125 550.713 31.8625C550.713 32.5875 550.125 33.1875 549.388 33.1875C548.663 33.1875 548.063 32.5875 548.063 31.8625Z" fill="#04041F"/>
<path d="M589.75 33.175C589.4 33.175 589.062 33.025 588.812 32.7875C588.562 32.5375 588.425 32.2 588.425 31.85C588.425 31.5 588.575 31.1625 588.812 30.9125C589.312 30.425 590.187 30.425 590.687 30.9125C590.925 31.1625 591.075 31.5 591.075 31.85C591.075 32.2 590.925 32.5375 590.687 32.7875C590.437 33.0375 590.1 33.175 589.75 33.175Z" fill="#04041F"/>
<path d="M574.675 243.2L566.925 235.45L574.675 227.7L582.425 235.45L574.675 243.2ZM568.687 235.45L574.675 241.438L580.662 235.45L574.675 229.463L568.687 235.45Z" fill="#04041F"/>
<path d="M291.225 41.3375L283.475 33.5875L291.225 25.8375L298.975 33.5875L291.225 41.3375ZM285.238 33.5875L291.225 39.575L297.213 33.5875L291.225 27.6L285.238 33.5875Z" fill="#04041F"/>
</svg>
