<svg width="112" height="112" viewBox="0 0 112 112" fill="none" xmlns="http://www.w3.org/2000/svg">
<path d="M7.50584 44.4473C7.50584 36.684 7.50584 28.9207 7.50584 21.1574C7.50584 20.0282 7.3647 20.1693 8.47038 20.1693C10.2583 20.1693 12.0226 20.1693 13.8106 20.1693C14.4693 20.1693 14.4693 20.1694 14.4693 20.8045C14.4693 20.9927 14.4693 21.1809 14.4693 21.3456C14.4693 30.4263 14.4693 39.507 14.4693 48.6113C14.4693 48.87 14.4693 49.1053 14.4693 49.3641C14.4693 49.4111 14.4928 49.4346 14.5164 49.4817C14.5399 49.5287 14.634 49.4817 14.7045 49.4346C14.8222 49.317 14.9398 49.2229 15.0574 49.1053C17.8569 46.3999 21.1269 44.4473 24.8439 43.2475C26.1848 42.824 27.5728 42.5182 28.9843 42.3065C30.5134 42.0948 32.0425 42.0007 33.5717 42.0948C38.4884 42.3536 42.9582 43.8827 46.9575 46.7998C51.7801 50.3286 54.956 54.9866 56.5087 60.7502C56.8145 61.9265 57.0263 63.1027 57.1439 64.326C57.3086 65.8317 57.332 67.3373 57.2144 68.8429C57.0497 71.2189 56.5323 73.5244 55.6854 75.7592C53.0035 82.8403 47.0281 88.6981 39.0531 90.933C37.6886 91.3094 36.3007 91.5682 34.8891 91.7093C33.5012 91.8505 32.1131 91.874 30.7251 91.7799C28.1844 91.6152 25.7143 91.0506 23.3383 90.1096C16.022 87.216 10.47 81.0289 8.39981 73.4303C7.99988 71.9717 7.74106 70.4896 7.62344 68.984C7.55286 68.0901 7.52939 67.1961 7.52939 66.3257C7.52939 59.0329 7.52939 51.7636 7.52939 44.4708L7.50584 44.4473ZM32.4895 84.887C33.8775 84.8635 35.3596 84.7223 36.7947 84.3459C41.2409 83.1697 44.7697 80.676 47.3339 76.8885C48.9336 74.5359 49.8746 71.9482 50.2275 69.1487C50.3687 67.9254 50.4157 66.7021 50.2981 65.4552C50.1569 63.8085 49.8041 62.2088 49.2159 60.6561C46.6282 53.7632 40.0882 49.1994 33.0306 49.0112C31.3839 48.9641 29.7371 49.1053 28.1374 49.5052C23.9734 50.5638 20.6093 52.7987 18.0216 56.2099C16.8218 57.786 15.9279 59.5269 15.3162 61.4089C14.681 63.338 14.4222 65.3141 14.4693 67.3373C14.4693 68.7017 14.681 70.0662 15.0104 71.3836C16.8924 78.7705 23.6441 84.8164 32.4895 84.887Z" fill="black"/>
<path d="M64.4838 66.9844C64.4838 59.0094 64.4838 51.0579 64.4838 43.0829C64.4838 41.9772 64.3426 42.0948 65.4718 42.0948C67.2597 42.0948 69.0242 42.0948 70.8121 42.0948C71.4943 42.0948 71.4707 42.1183 71.4707 42.73C71.4707 44.7296 71.4707 46.7528 71.4707 48.7524C71.4707 48.9877 71.4707 49.1994 71.4942 49.4347C71.4942 49.4582 71.5414 49.5052 71.5884 49.5288H71.6354C71.8001 49.3876 71.9412 49.2465 72.0824 49.1053C74.1526 47.1057 76.5051 45.506 79.1164 44.3062C81.0925 43.4122 83.1627 42.777 85.327 42.4242C86.7386 42.1889 88.1265 42.0948 89.5615 42.0948C89.7733 42.0948 89.9615 42.0948 90.1732 42.1183C90.2673 42.1183 90.3615 42.2124 90.3615 42.283C90.3615 42.4006 90.3615 42.5183 90.3615 42.6124C90.3615 44.565 90.3615 46.5411 90.3615 48.4936C90.3615 48.5878 90.3615 48.6819 90.3615 48.776C90.3615 48.9171 90.2908 48.9877 90.1497 49.0112C90.0791 49.0112 90.0086 49.0112 89.938 49.0112C89.7028 49.0112 89.4911 49.0112 89.2558 49.0112C85.6095 49.0112 82.2688 50.0698 79.2811 52.1165C75.5641 54.6808 73.1175 58.1625 71.9648 62.5146C71.6119 63.8556 71.4238 65.2436 71.4473 66.6315C71.4473 74.6771 71.4473 82.7463 71.4473 90.7919C71.4473 91.0507 71.4473 91.2859 71.4473 91.5447C71.4473 91.6388 71.3532 91.7093 71.2826 91.7329C71.165 91.7329 71.0473 91.7329 70.9532 91.7329C68.9771 91.7329 66.9774 91.7329 65.0013 91.7329C64.9072 91.7329 64.8131 91.7329 64.719 91.7329C64.6014 91.7329 64.5073 91.6388 64.5073 91.4976C64.5073 91.2388 64.5073 91.0036 64.5073 90.7448C64.5073 82.7933 64.5073 74.8653 64.5073 66.9138" fill="black"/>
<path d="M104.5 55.951C104.5 67.5489 104.5 79.1468 104.5 90.7447C104.5 91.027 104.5 91.2858 104.5 91.5681C104.5 91.6857 104.406 91.7798 104.265 91.7798C104.171 91.7798 104.076 91.7798 103.982 91.7798C102.006 91.7798 100.007 91.7798 98.0306 91.7798C97.5366 91.7798 97.5365 91.7798 97.5365 91.2858C97.5365 91.1447 97.5365 91.0035 97.5365 90.8859C97.5365 67.6195 97.5365 44.3767 97.5365 21.1103C97.5365 20.8515 97.5365 20.6163 97.5365 20.3575C97.5365 20.2869 97.6306 20.1928 97.7247 20.1928C97.8894 20.1928 98.0541 20.1928 98.1953 20.1928C100.077 20.1928 101.936 20.1928 103.818 20.1928C104.006 20.1928 104.171 20.1928 104.359 20.2399C104.382 20.2399 104.429 20.2869 104.453 20.334C104.453 20.4045 104.476 20.4751 104.476 20.5457C104.476 20.8045 104.476 21.0397 104.476 21.2985C104.476 32.8729 104.476 44.4472 104.476 56.0216" fill="black"/>
</svg>
