<svg width="83" height="83" viewBox="0 0 83 83" fill="none" xmlns="http://www.w3.org/2000/svg">
<mask id="mask0_41_145" style="mask-type:alpha" maskUnits="userSpaceOnUse" x="0" y="0" width="83" height="83">
<rect width="83" height="83" fill="#F7A70A"/>
</mask>
<g mask="url(#mask0_41_145)">
<path d="M13.8332 72.625C11.9311 72.625 10.3028 71.9477 8.94827 70.5932C7.59376 69.2387 6.9165 67.6104 6.9165 65.7083V24.2083H13.8332V65.7083H65.7082V72.625H13.8332ZM27.6665 58.7917C25.7644 58.7917 24.1361 58.1144 22.7816 56.7599C21.4271 55.4054 20.7498 53.7771 20.7498 51.875V10.375H79.5415V51.875C79.5415 53.7771 78.8642 55.4054 77.5097 56.7599C76.1552 58.1144 74.5269 58.7917 72.6248 58.7917H27.6665ZM27.6665 51.875H72.6248V17.2917H27.6665V51.875ZM34.5832 41.5H48.4165V24.2083H34.5832V41.5ZM51.8748 41.5H65.7082V34.5833H51.8748V41.5ZM51.8748 31.125H65.7082V24.2083H51.8748V31.125Z" fill="#F7A70A"/>
</g>
</svg>
