<svg width="1300" height="1000" viewBox="0 0 1300 1000" fill="none" xmlns="http://www.w3.org/2000/svg">
<g clip-path="url(#clip0_41_113)">
<rect width="1300" height="1000" fill="#F2F2F2"/>
<path fill-rule="evenodd" clip-rule="evenodd" d="M1287.84 42.2142H939.14C915.906 42.2142 897.207 60.432 897.207 82.741V917.259C897.207 939.568 915.906 957.786 939.14 957.786H1287.84C1311.08 957.786 1329.77 939.568 1329.77 917.259V82.741C1329.77 60.432 1311.08 42.2142 1287.84 42.2142ZM939.14 40C914.762 40 895 59.1358 895 82.741V917.259C895 940.864 914.762 960 939.14 960H1287.84C1312.22 960 1331.98 940.864 1331.98 917.259V82.741C1331.98 59.1358 1312.22 40 1287.84 40H939.14Z" fill="#D1D1D1"/>
<path fill-rule="evenodd" clip-rule="evenodd" d="M977.21 88.0064C979.417 88.0064 981.072 86.2932 981.072 84.3437C981.072 82.3942 979.417 80.681 977.21 80.681C975.002 80.681 973.348 82.3942 973.348 84.3437C973.348 86.2932 975.002 88.0064 977.21 88.0064ZM977.21 90.2206C980.562 90.2206 983.279 87.5894 983.279 84.3437C983.279 81.098 980.562 78.4668 977.21 78.4668C973.858 78.4668 971.141 81.098 971.141 84.3437C971.141 87.5894 973.858 90.2206 977.21 90.2206Z" fill="#D1D1D1"/>
<path fill-rule="evenodd" clip-rule="evenodd" d="M977.21 93.3491C982.465 93.3491 986.59 89.2439 986.59 84.3438C986.59 79.4436 982.465 75.3385 977.21 75.3385C971.956 75.3385 967.831 79.4436 967.831 84.3438C967.831 89.2439 971.956 93.3491 977.21 93.3491ZM977.21 95.5633C983.609 95.5633 988.797 90.5401 988.797 84.3438C988.797 78.1474 983.609 73.1243 977.21 73.1243C970.811 73.1243 965.624 78.1474 965.624 84.3438C965.624 90.5401 970.811 95.5633 977.21 95.5633Z" fill="#D1D1D1"/>
<path fill-rule="evenodd" clip-rule="evenodd" d="M1031.28 88.0064C1033.49 88.0064 1035.14 86.2932 1035.14 84.3437C1035.14 82.3942 1033.49 80.681 1031.28 80.681C1029.07 80.681 1027.42 82.3942 1027.42 84.3437C1027.42 86.2932 1029.07 88.0064 1031.28 88.0064ZM1031.28 90.2206C1034.63 90.2206 1037.35 87.5894 1037.35 84.3437C1037.35 81.098 1034.63 78.4668 1031.28 78.4668C1027.93 78.4668 1025.21 81.098 1025.21 84.3437C1025.21 87.5894 1027.93 90.2206 1031.28 90.2206Z" fill="#D1D1D1"/>
<path fill-rule="evenodd" clip-rule="evenodd" d="M1185.77 88.0065C1188.59 88.0065 1190.74 85.8149 1190.74 83.2752C1190.74 80.7356 1188.59 78.544 1185.77 78.544C1182.95 78.544 1180.8 80.7356 1180.8 83.2752C1180.8 85.8149 1182.95 88.0065 1185.77 88.0065ZM1185.77 90.2207C1189.73 90.2207 1192.94 87.1111 1192.94 83.2752C1192.94 79.4394 1189.73 76.3298 1185.77 76.3298C1181.81 76.3298 1178.6 79.4394 1178.6 83.2752C1178.6 87.1111 1181.81 90.2207 1185.77 90.2207Z" fill="#D1D1D1"/>
<path fill-rule="evenodd" clip-rule="evenodd" d="M1031.28 93.3491C1036.54 93.3491 1040.66 89.2439 1040.66 84.3438C1040.66 79.4436 1036.54 75.3385 1031.28 75.3385C1026.03 75.3385 1021.9 79.4436 1021.9 84.3438C1021.9 89.2439 1026.03 93.3491 1031.28 93.3491ZM1031.28 95.5633C1037.68 95.5633 1042.87 90.5401 1042.87 84.3438C1042.87 78.1474 1037.68 73.1243 1031.28 73.1243C1024.88 73.1243 1019.69 78.1474 1019.69 84.3438C1019.69 90.5401 1024.88 95.5633 1031.28 95.5633Z" fill="#D1D1D1"/>
<path fill-rule="evenodd" clip-rule="evenodd" d="M1157.08 66.7901H1068.8C1066.59 66.7901 1064.94 68.5033 1064.94 70.4528C1064.94 72.4023 1066.59 74.1155 1068.8 74.1155H1157.08C1159.29 74.1155 1160.94 72.4023 1160.94 70.4528C1160.94 68.5033 1159.29 66.7901 1157.08 66.7901ZM1068.8 64.5759C1065.45 64.5759 1062.73 67.2071 1062.73 70.4528C1062.73 73.6985 1065.45 76.3297 1068.8 76.3297H1157.08C1160.43 76.3297 1163.15 73.6985 1163.15 70.4528C1163.15 67.2071 1160.43 64.5759 1157.08 64.5759H1068.8Z" fill="#D1D1D1"/>
<path fill-rule="evenodd" clip-rule="evenodd" d="M1158.73 925.885H1067.14C1065.24 925.885 1063.83 927.359 1063.83 929.013C1063.83 930.667 1065.24 932.141 1067.14 932.141H1158.73C1160.64 932.141 1162.05 930.667 1162.05 929.013C1162.05 927.359 1160.64 925.885 1158.73 925.885ZM1067.14 923.67C1064.1 923.67 1061.63 926.062 1061.63 929.013C1061.63 931.964 1064.1 934.356 1067.14 934.356H1158.73C1161.78 934.356 1164.25 931.964 1164.25 929.013C1164.25 926.062 1161.78 923.67 1158.73 923.67H1067.14Z" fill="#D1D1D1"/>
<path fill-rule="evenodd" clip-rule="evenodd" d="M1122.32 858.568H1104.66C1102.76 858.568 1101.35 860.042 1101.35 861.696C1101.35 863.351 1102.76 864.825 1104.66 864.825H1122.32C1124.22 864.825 1125.63 863.351 1125.63 861.696C1125.63 860.042 1124.22 858.568 1122.32 858.568ZM1104.66 856.354C1101.62 856.354 1099.15 858.745 1099.15 861.696C1099.15 864.647 1101.62 867.039 1104.66 867.039H1122.32C1125.37 867.039 1127.84 864.647 1127.84 861.696C1127.84 858.745 1125.37 856.354 1122.32 856.354H1104.66Z" fill="#D1D1D1"/>
<path fill-rule="evenodd" clip-rule="evenodd" d="M1293.36 108.463H933.622C924.406 108.463 917.07 115.678 917.07 124.414V878.792C917.07 887.528 924.406 894.743 933.622 894.743H1293.36C1302.58 894.743 1309.91 887.528 1309.91 878.792V124.414C1309.91 115.678 1302.58 108.463 1293.36 108.463ZM933.622 106.249C923.262 106.249 914.863 114.382 914.863 124.414V878.792C914.863 888.824 923.262 896.957 933.622 896.957H1293.36C1303.72 896.957 1312.12 888.824 1312.12 878.792V124.414C1312.12 114.381 1303.72 106.249 1293.36 106.249H933.622Z" fill="#D1D1D1"/>
<rect x="93" y="372" width="697" height="136.701" rx="8" fill="#13100D"/>
<path d="M139.068 475.351V405.532H166.614C171.886 405.532 176.386 406.476 180.114 408.362C183.864 410.226 186.716 412.873 188.67 416.305C190.648 419.714 191.636 423.726 191.636 428.339C191.636 432.976 190.636 436.964 188.636 440.305C186.636 443.623 183.739 446.169 179.943 447.941C176.17 449.714 171.602 450.601 166.239 450.601H147.795V438.737H163.852C166.67 438.737 169.011 438.351 170.875 437.578C172.739 436.805 174.125 435.646 175.034 434.101C175.966 432.555 176.432 430.635 176.432 428.339C176.432 426.021 175.966 424.066 175.034 422.476C174.125 420.885 172.727 419.68 170.841 418.862C168.977 418.021 166.625 417.601 163.784 417.601H153.83V475.351H139.068ZM176.773 443.578L194.125 475.351H177.83L160.852 443.578H176.773ZM224.815 476.373C219.429 476.373 214.793 475.282 210.906 473.101C207.043 470.896 204.065 467.782 201.974 463.76C199.884 459.714 198.838 454.93 198.838 449.407C198.838 444.021 199.884 439.294 201.974 435.226C204.065 431.157 207.009 427.987 210.804 425.714C214.622 423.441 219.099 422.305 224.236 422.305C227.69 422.305 230.906 422.862 233.884 423.976C236.884 425.066 239.497 426.714 241.724 428.919C243.974 431.123 245.724 433.896 246.974 437.237C248.224 440.555 248.849 444.441 248.849 448.896V452.885H204.634V443.885H235.179C235.179 441.794 234.724 439.941 233.815 438.328C232.906 436.714 231.645 435.453 230.031 434.544C228.44 433.612 226.588 433.146 224.474 433.146C222.27 433.146 220.315 433.657 218.611 434.68C216.929 435.68 215.611 437.032 214.656 438.737C213.702 440.419 213.213 442.294 213.19 444.362V452.919C213.19 455.51 213.668 457.748 214.622 459.635C215.599 461.521 216.974 462.976 218.747 463.998C220.52 465.021 222.622 465.532 225.054 465.532C226.668 465.532 228.145 465.305 229.486 464.851C230.827 464.396 231.974 463.714 232.929 462.805C233.884 461.896 234.611 460.782 235.111 459.464L248.543 460.351C247.861 463.578 246.463 466.396 244.349 468.805C242.259 471.191 239.554 473.055 236.236 474.396C232.94 475.714 229.134 476.373 224.815 476.373ZM272.849 445.078V475.351H258.327V422.987H272.168V432.226H272.781C273.94 429.18 275.884 426.771 278.611 424.998C281.338 423.203 284.645 422.305 288.531 422.305C292.168 422.305 295.338 423.101 298.043 424.691C300.747 426.282 302.849 428.555 304.349 431.51C305.849 434.441 306.599 437.941 306.599 442.01V475.351H292.077V444.601C292.099 441.396 291.281 438.896 289.622 437.101C287.963 435.282 285.679 434.373 282.77 434.373C280.815 434.373 279.088 434.794 277.588 435.635C276.111 436.476 274.952 437.703 274.111 439.316C273.293 440.907 272.872 442.828 272.849 445.078ZM345.898 422.987V433.896H314.364V422.987H345.898ZM321.523 410.441H336.045V459.26C336.045 460.601 336.25 461.646 336.659 462.396C337.068 463.123 337.636 463.635 338.364 463.93C339.114 464.226 339.977 464.373 340.955 464.373C341.636 464.373 342.318 464.316 343 464.203C343.682 464.066 344.205 463.964 344.568 463.896L346.852 474.703C346.125 474.93 345.102 475.191 343.784 475.487C342.466 475.805 340.864 475.998 338.977 476.066C335.477 476.203 332.409 475.737 329.773 474.669C327.159 473.601 325.125 471.941 323.67 469.691C322.216 467.441 321.5 464.601 321.523 461.169V410.441ZM356.756 475.351V405.532H384.301C389.574 405.532 394.074 406.476 397.801 408.362C401.551 410.226 404.403 412.873 406.358 416.305C408.335 419.714 409.324 423.726 409.324 428.339C409.324 432.976 408.324 436.964 406.324 440.305C404.324 443.623 401.426 446.169 397.631 447.941C393.858 449.714 389.29 450.601 383.926 450.601H365.483V438.737H381.54C384.358 438.737 386.699 438.351 388.562 437.578C390.426 436.805 391.813 435.646 392.722 434.101C393.653 432.555 394.119 430.635 394.119 428.339C394.119 426.021 393.653 424.066 392.722 422.476C391.813 420.885 390.415 419.68 388.528 418.862C386.665 418.021 384.313 417.601 381.472 417.601H371.517V475.351H356.756ZM394.46 443.578L411.812 475.351H395.517L378.54 443.578H394.46ZM442.503 476.373C437.116 476.373 432.48 475.282 428.594 473.101C424.73 470.896 421.753 467.782 419.662 463.76C417.571 459.714 416.526 454.93 416.526 449.407C416.526 444.021 417.571 439.294 419.662 435.226C421.753 431.157 424.696 427.987 428.491 425.714C432.31 423.441 436.787 422.305 441.923 422.305C445.378 422.305 448.594 422.862 451.571 423.976C454.571 425.066 457.185 426.714 459.412 428.919C461.662 431.123 463.412 433.896 464.662 437.237C465.912 440.555 466.537 444.441 466.537 448.896V452.885H422.321V443.885H452.866C452.866 441.794 452.412 439.941 451.503 438.328C450.594 436.714 449.332 435.453 447.719 434.544C446.128 433.612 444.276 433.146 442.162 433.146C439.957 433.146 438.003 433.657 436.298 434.68C434.616 435.68 433.298 437.032 432.344 438.737C431.389 440.419 430.901 442.294 430.878 444.362V452.919C430.878 455.51 431.355 457.748 432.31 459.635C433.287 461.521 434.662 462.976 436.435 463.998C438.207 465.021 440.31 465.532 442.741 465.532C444.355 465.532 445.832 465.305 447.173 464.851C448.514 464.396 449.662 463.714 450.616 462.805C451.571 461.896 452.298 460.782 452.798 459.464L466.23 460.351C465.548 463.578 464.151 466.396 462.037 468.805C459.946 471.191 457.241 473.055 453.923 474.396C450.628 475.714 446.821 476.373 442.503 476.373ZM490.537 405.532V475.351H476.014V405.532H490.537ZM526.034 476.373C520.648 476.373 516.011 475.282 512.125 473.101C508.261 470.896 505.284 467.782 503.193 463.76C501.102 459.714 500.057 454.93 500.057 449.407C500.057 444.021 501.102 439.294 503.193 435.226C505.284 431.157 508.227 427.987 512.023 425.714C515.841 423.441 520.318 422.305 525.455 422.305C528.909 422.305 532.125 422.862 535.102 423.976C538.102 425.066 540.716 426.714 542.943 428.919C545.193 431.123 546.943 433.896 548.193 437.237C549.443 440.555 550.068 444.441 550.068 448.896V452.885H505.852V443.885H536.398C536.398 441.794 535.943 439.941 535.034 438.328C534.125 436.714 532.864 435.453 531.25 434.544C529.659 433.612 527.807 433.146 525.693 433.146C523.489 433.146 521.534 433.657 519.83 434.68C518.148 435.68 516.83 437.032 515.875 438.737C514.92 440.419 514.432 442.294 514.409 444.362V452.919C514.409 455.51 514.886 457.748 515.841 459.635C516.818 461.521 518.193 462.976 519.966 463.998C521.739 465.021 523.841 465.532 526.273 465.532C527.886 465.532 529.364 465.305 530.705 464.851C532.045 464.396 533.193 463.714 534.148 462.805C535.102 461.896 535.83 460.782 536.33 459.464L549.761 460.351C549.08 463.578 547.682 466.396 545.568 468.805C543.477 471.191 540.773 473.055 537.455 474.396C534.159 475.714 530.352 476.373 526.034 476.373ZM574.477 476.339C571.136 476.339 568.159 475.76 565.545 474.601C562.932 473.419 560.864 471.68 559.341 469.385C557.841 467.066 557.091 464.18 557.091 460.726C557.091 457.816 557.625 455.373 558.693 453.396C559.761 451.419 561.216 449.828 563.057 448.623C564.898 447.419 566.989 446.51 569.33 445.896C571.693 445.282 574.17 444.851 576.761 444.601C579.807 444.282 582.261 443.987 584.125 443.714C585.989 443.419 587.341 442.987 588.182 442.419C589.023 441.851 589.443 441.01 589.443 439.896V439.691C589.443 437.532 588.761 435.862 587.398 434.68C586.057 433.498 584.148 432.907 581.67 432.907C579.057 432.907 576.977 433.487 575.432 434.646C573.886 435.782 572.864 437.214 572.364 438.941L558.932 437.851C559.614 434.669 560.955 431.919 562.955 429.601C564.955 427.26 567.534 425.464 570.693 424.214C573.875 422.941 577.557 422.305 581.739 422.305C584.648 422.305 587.432 422.646 590.091 423.328C592.773 424.01 595.148 425.066 597.216 426.498C599.307 427.93 600.955 429.771 602.159 432.021C603.364 434.248 603.966 436.919 603.966 440.032V475.351H590.193V468.089H589.784C588.943 469.726 587.818 471.169 586.409 472.419C585 473.646 583.307 474.612 581.33 475.316C579.352 475.998 577.068 476.339 574.477 476.339ZM578.636 466.316C580.773 466.316 582.659 465.896 584.295 465.055C585.932 464.191 587.216 463.032 588.148 461.578C589.08 460.123 589.545 458.476 589.545 456.635V451.078C589.091 451.373 588.466 451.646 587.67 451.896C586.898 452.123 586.023 452.339 585.045 452.544C584.068 452.726 583.091 452.896 582.114 453.055C581.136 453.191 580.25 453.316 579.455 453.43C577.75 453.68 576.261 454.078 574.989 454.623C573.716 455.169 572.727 455.907 572.023 456.839C571.318 457.748 570.966 458.885 570.966 460.248C570.966 462.226 571.682 463.737 573.114 464.782C574.568 465.805 576.409 466.316 578.636 466.316ZM658.801 437.919L645.506 438.737C645.278 437.601 644.79 436.578 644.04 435.669C643.29 434.737 642.301 433.998 641.074 433.453C639.869 432.885 638.426 432.601 636.744 432.601C634.494 432.601 632.597 433.078 631.051 434.032C629.506 434.964 628.733 436.214 628.733 437.782C628.733 439.032 629.233 440.089 630.233 440.953C631.233 441.816 632.949 442.51 635.381 443.032L644.858 444.941C649.949 445.987 653.744 447.669 656.244 449.987C658.744 452.305 659.994 455.351 659.994 459.123C659.994 462.555 658.983 465.566 656.96 468.157C654.96 470.748 652.21 472.771 648.71 474.226C645.233 475.657 641.222 476.373 636.676 476.373C629.744 476.373 624.222 474.93 620.108 472.044C616.017 469.135 613.619 465.18 612.915 460.18L627.199 459.43C627.631 461.544 628.676 463.157 630.335 464.271C631.994 465.362 634.119 465.907 636.71 465.907C639.256 465.907 641.301 465.419 642.847 464.441C644.415 463.441 645.21 462.157 645.233 460.589C645.21 459.271 644.653 458.191 643.562 457.351C642.472 456.487 640.79 455.828 638.517 455.373L629.449 453.566C624.335 452.544 620.528 450.771 618.028 448.248C615.551 445.726 614.312 442.51 614.312 438.601C614.312 435.237 615.222 432.339 617.04 429.907C618.881 427.476 621.46 425.601 624.778 424.282C628.119 422.964 632.028 422.305 636.506 422.305C643.119 422.305 648.324 423.703 652.119 426.498C655.938 429.294 658.165 433.101 658.801 437.919ZM693.003 476.373C687.616 476.373 682.98 475.282 679.094 473.101C675.23 470.896 672.253 467.782 670.162 463.76C668.071 459.714 667.026 454.93 667.026 449.407C667.026 444.021 668.071 439.294 670.162 435.226C672.253 431.157 675.196 427.987 678.991 425.714C682.81 423.441 687.287 422.305 692.423 422.305C695.878 422.305 699.094 422.862 702.071 423.976C705.071 425.066 707.685 426.714 709.912 428.919C712.162 431.123 713.912 433.896 715.162 437.237C716.412 440.555 717.037 444.441 717.037 448.896V452.885H672.821V443.885H703.366C703.366 441.794 702.912 439.941 702.003 438.328C701.094 436.714 699.832 435.453 698.219 434.544C696.628 433.612 694.776 433.146 692.662 433.146C690.457 433.146 688.503 433.657 686.798 434.68C685.116 435.68 683.798 437.032 682.844 438.737C681.889 440.419 681.401 442.294 681.378 444.362V452.919C681.378 455.51 681.855 457.748 682.81 459.635C683.787 461.521 685.162 462.976 686.935 463.998C688.707 465.021 690.81 465.532 693.241 465.532C694.855 465.532 696.332 465.305 697.673 464.851C699.014 464.396 700.162 463.714 701.116 462.805C702.071 461.896 702.798 460.782 703.298 459.464L716.73 460.351C716.048 463.578 714.651 466.396 712.537 468.805C710.446 471.191 707.741 473.055 704.423 474.396C701.128 475.714 697.321 476.373 693.003 476.373ZM735.003 476.237C732.753 476.237 730.821 475.441 729.207 473.851C727.616 472.237 726.821 470.305 726.821 468.055C726.821 465.828 727.616 463.919 729.207 462.328C730.821 460.737 732.753 459.941 735.003 459.941C737.185 459.941 739.094 460.737 740.73 462.328C742.366 463.919 743.185 465.828 743.185 468.055C743.185 469.555 742.798 470.93 742.026 472.18C741.276 473.407 740.287 474.396 739.06 475.146C737.832 475.873 736.48 476.237 735.003 476.237ZM735.003 439.555C732.753 439.555 730.821 438.76 729.207 437.169C727.616 435.578 726.821 433.646 726.821 431.373C726.821 429.146 727.616 427.248 729.207 425.68C730.821 424.089 732.753 423.294 735.003 423.294C737.185 423.294 739.094 424.089 740.73 425.68C742.366 427.248 743.185 429.146 743.185 431.373C743.185 432.896 742.798 434.282 742.026 435.532C741.276 436.76 740.287 437.737 739.06 438.464C737.832 439.191 736.48 439.555 735.003 439.555Z" fill="white"/>
<rect x="139" y="498.649" width="966" height="68.3505" rx="8" fill="#F7A70A"/>
<path d="M173.943 546.208C171.983 546.208 170.3 545.778 168.893 544.917C167.496 544.056 166.418 542.867 165.659 541.35C164.909 539.825 164.534 538.069 164.534 536.083C164.534 534.089 164.918 532.329 165.685 530.803C166.452 529.269 167.534 528.076 168.932 527.224C170.338 526.363 172 525.933 173.918 525.933C175.511 525.933 176.922 526.227 178.149 526.815C179.385 527.394 180.369 528.217 181.102 529.282C181.835 530.339 182.253 531.575 182.355 532.989H177.932C177.753 532.043 177.327 531.255 176.653 530.624C175.989 529.985 175.098 529.666 173.982 529.666C173.036 529.666 172.205 529.921 171.489 530.433C170.773 530.936 170.214 531.66 169.814 532.606C169.422 533.552 169.226 534.686 169.226 536.007C169.226 537.345 169.422 538.495 169.814 539.458C170.206 540.413 170.756 541.15 171.463 541.67C172.179 542.181 173.018 542.437 173.982 542.437C174.663 542.437 175.273 542.309 175.81 542.053C176.355 541.789 176.811 541.41 177.178 540.916C177.544 540.421 177.795 539.82 177.932 539.113H182.355C182.244 540.502 181.835 541.734 181.128 542.808C180.42 543.873 179.457 544.708 178.239 545.313C177.02 545.91 175.588 546.208 173.943 546.208ZM194.721 546.208C192.803 546.208 191.141 545.786 189.735 544.943C188.328 544.099 187.238 542.918 186.462 541.401C185.695 539.884 185.311 538.112 185.311 536.083C185.311 534.055 185.695 532.278 186.462 530.752C187.238 529.227 188.328 528.042 189.735 527.198C191.141 526.355 192.803 525.933 194.721 525.933C196.638 525.933 198.3 526.355 199.706 527.198C201.113 528.042 202.199 529.227 202.966 530.752C203.742 532.278 204.13 534.055 204.13 536.083C204.13 538.112 203.742 539.884 202.966 541.401C202.199 542.918 201.113 544.099 199.706 544.943C198.3 545.786 196.638 546.208 194.721 546.208ZM194.746 542.501C195.786 542.501 196.655 542.215 197.354 541.644C198.053 541.065 198.573 540.289 198.914 539.318C199.263 538.346 199.438 537.264 199.438 536.07C199.438 534.869 199.263 533.782 198.914 532.811C198.573 531.83 198.053 531.051 197.354 530.471C196.655 529.891 195.786 529.602 194.746 529.602C193.681 529.602 192.794 529.891 192.087 530.471C191.388 531.051 190.864 531.83 190.515 532.811C190.174 533.782 190.003 534.869 190.003 536.07C190.003 537.264 190.174 538.346 190.515 539.318C190.864 540.289 191.388 541.065 192.087 541.644C192.794 542.215 193.681 542.501 194.746 542.501ZM212.685 534.319V545.825H208.058V526.188H212.481V529.525H212.711C213.163 528.426 213.883 527.552 214.871 526.904C215.869 526.257 217.1 525.933 218.566 525.933C219.921 525.933 221.102 526.222 222.107 526.802C223.121 527.382 223.906 528.221 224.46 529.32C225.022 530.42 225.299 531.754 225.29 533.322V545.825H220.663V534.038C220.663 532.725 220.322 531.698 219.64 530.957C218.967 530.215 218.033 529.845 216.84 529.845C216.031 529.845 215.31 530.024 214.68 530.382C214.058 530.731 213.567 531.238 213.21 531.903C212.86 532.568 212.685 533.373 212.685 534.319ZM238.688 546.208C236.719 546.208 235.019 545.799 233.587 544.981C232.164 544.154 231.069 542.987 230.302 541.478C229.535 539.961 229.151 538.176 229.151 536.122C229.151 534.102 229.535 532.329 230.302 530.803C231.077 529.269 232.16 528.076 233.549 527.224C234.938 526.363 236.57 525.933 238.445 525.933C239.656 525.933 240.798 526.129 241.871 526.521C242.954 526.904 243.908 527.501 244.735 528.311C245.57 529.12 246.227 530.151 246.704 531.404C247.181 532.649 247.42 534.132 247.42 535.853V537.272H231.325V534.153H242.984C242.975 533.266 242.783 532.478 242.408 531.788C242.033 531.089 241.509 530.539 240.836 530.139C240.171 529.738 239.396 529.538 238.509 529.538C237.563 529.538 236.732 529.768 236.016 530.228C235.3 530.68 234.742 531.276 234.342 532.018C233.95 532.751 233.749 533.556 233.741 534.434V537.157C233.741 538.299 233.95 539.279 234.367 540.097C234.785 540.907 235.369 541.529 236.119 541.964C236.869 542.39 237.746 542.603 238.752 542.603C239.425 542.603 240.035 542.509 240.58 542.322C241.126 542.126 241.599 541.84 241.999 541.465C242.4 541.09 242.702 540.626 242.907 540.072L247.228 540.558C246.955 541.7 246.435 542.697 245.668 543.549C244.91 544.393 243.938 545.049 242.754 545.518C241.569 545.978 240.214 546.208 238.688 546.208ZM259.9 546.208C257.94 546.208 256.257 545.778 254.85 544.917C253.453 544.056 252.375 542.867 251.616 541.35C250.866 539.825 250.491 538.069 250.491 536.083C250.491 534.089 250.875 532.329 251.642 530.803C252.409 529.269 253.491 528.076 254.889 527.224C256.295 526.363 257.957 525.933 259.875 525.933C261.468 525.933 262.879 526.227 264.106 526.815C265.342 527.394 266.326 528.217 267.059 529.282C267.792 530.339 268.21 531.575 268.312 532.989H263.889C263.71 532.043 263.284 531.255 262.61 530.624C261.946 529.985 261.055 529.666 259.939 529.666C258.993 529.666 258.162 529.921 257.446 530.433C256.73 530.936 256.172 531.66 255.771 532.606C255.379 533.552 255.183 534.686 255.183 536.007C255.183 537.345 255.379 538.495 255.771 539.458C256.163 540.413 256.713 541.15 257.42 541.67C258.136 542.181 258.975 542.437 259.939 542.437C260.62 542.437 261.23 542.309 261.767 542.053C262.312 541.789 262.768 541.41 263.135 540.916C263.501 540.421 263.752 539.82 263.889 539.113H268.312C268.201 540.502 267.792 541.734 267.085 542.808C266.377 543.873 265.414 544.708 264.196 545.313C262.977 545.91 261.545 546.208 259.9 546.208ZM281.918 526.188V529.768H270.629V526.188H281.918ZM273.416 521.484H278.044V539.918C278.044 540.541 278.138 541.018 278.325 541.35C278.521 541.674 278.777 541.896 279.092 542.015C279.408 542.134 279.757 542.194 280.141 542.194C280.43 542.194 280.695 542.173 280.933 542.13C281.18 542.087 281.368 542.049 281.496 542.015L282.276 545.633C282.028 545.718 281.675 545.812 281.214 545.914C280.763 546.016 280.209 546.076 279.553 546.093C278.393 546.127 277.349 545.953 276.42 545.569C275.491 545.177 274.754 544.572 274.209 543.754C273.672 542.936 273.408 541.913 273.416 540.686V521.484ZM291.439 546.221C290.194 546.221 289.074 545.999 288.076 545.556C287.088 545.105 286.304 544.44 285.724 543.562C285.153 542.684 284.868 541.602 284.868 540.315C284.868 539.207 285.072 538.291 285.481 537.566C285.89 536.842 286.449 536.262 287.156 535.828C287.863 535.393 288.66 535.065 289.547 534.843C290.441 534.613 291.366 534.447 292.321 534.345C293.471 534.225 294.404 534.119 295.12 534.025C295.836 533.923 296.356 533.769 296.68 533.565C297.012 533.352 297.179 533.024 297.179 532.58V532.504C297.179 531.541 296.893 530.795 296.322 530.266C295.751 529.738 294.929 529.474 293.855 529.474C292.721 529.474 291.822 529.721 291.157 530.215C290.501 530.71 290.058 531.293 289.828 531.967L285.507 531.353C285.848 530.16 286.41 529.163 287.194 528.362C287.978 527.552 288.937 526.947 290.071 526.546C291.204 526.137 292.457 525.933 293.829 525.933C294.775 525.933 295.717 526.043 296.654 526.265C297.592 526.487 298.449 526.853 299.224 527.364C300 527.867 300.622 528.553 301.091 529.423C301.568 530.292 301.806 531.379 301.806 532.683V545.825H297.358V543.127H297.204C296.923 543.673 296.527 544.184 296.015 544.661C295.512 545.13 294.877 545.509 294.11 545.799C293.352 546.08 292.461 546.221 291.439 546.221ZM292.64 542.82C293.569 542.82 294.375 542.637 295.056 542.271C295.738 541.896 296.262 541.401 296.629 540.788C297.004 540.174 297.191 539.505 297.191 538.781V536.467C297.047 536.586 296.799 536.697 296.45 536.799C296.109 536.901 295.725 536.991 295.299 537.068C294.873 537.144 294.451 537.212 294.034 537.272C293.616 537.332 293.254 537.383 292.947 537.426C292.257 537.519 291.639 537.673 291.093 537.886C290.548 538.099 290.118 538.397 289.802 538.781C289.487 539.156 289.329 539.641 289.329 540.238C289.329 541.09 289.64 541.734 290.262 542.168C290.885 542.603 291.677 542.82 292.64 542.82ZM311.088 534.319V545.825H306.46V526.188H310.883V529.525H311.113C311.565 528.426 312.285 527.552 313.274 526.904C314.271 526.257 315.502 525.933 316.968 525.933C318.324 525.933 319.504 526.222 320.51 526.802C321.524 527.382 322.308 528.221 322.862 529.32C323.424 530.42 323.701 531.754 323.693 533.322V545.825H319.065V534.038C319.065 532.725 318.724 531.698 318.042 530.957C317.369 530.215 316.436 529.845 315.243 529.845C314.433 529.845 313.713 530.024 313.082 530.382C312.46 530.731 311.97 531.238 311.612 531.903C311.262 532.568 311.088 533.373 311.088 534.319ZM335.684 546.17C334.142 546.17 332.761 545.774 331.542 544.981C330.324 544.188 329.36 543.038 328.653 541.529C327.946 540.021 327.592 538.188 327.592 536.032C327.592 533.85 327.95 532.009 328.666 530.509C329.39 529.001 330.366 527.863 331.593 527.096C332.821 526.32 334.189 525.933 335.697 525.933C336.848 525.933 337.794 526.129 338.535 526.521C339.277 526.904 339.865 527.369 340.299 527.914C340.734 528.451 341.071 528.958 341.309 529.436H341.501V519.643H346.142V545.825H341.591V542.731H341.309C341.071 543.208 340.725 543.715 340.274 544.252C339.822 544.781 339.225 545.232 338.484 545.607C337.743 545.982 336.809 546.17 335.684 546.17ZM336.975 542.373C337.956 542.373 338.791 542.109 339.481 541.58C340.172 541.043 340.696 540.298 341.054 539.343C341.412 538.389 341.591 537.276 341.591 536.007C341.591 534.737 341.412 533.633 341.054 532.695C340.704 531.758 340.184 531.029 339.494 530.509C338.812 529.989 337.973 529.73 336.975 529.73C335.944 529.73 335.083 529.998 334.393 530.535C333.703 531.072 333.183 531.813 332.833 532.759C332.484 533.705 332.309 534.788 332.309 536.007C332.309 537.234 332.484 538.329 332.833 539.292C333.191 540.247 333.716 541.001 334.406 541.555C335.105 542.1 335.961 542.373 336.975 542.373ZM359.638 546.208C357.721 546.208 356.059 545.786 354.653 544.943C353.246 544.099 352.156 542.918 351.38 541.401C350.613 539.884 350.229 538.112 350.229 536.083C350.229 534.055 350.613 532.278 351.38 530.752C352.156 529.227 353.246 528.042 354.653 527.198C356.059 526.355 357.721 525.933 359.638 525.933C361.556 525.933 363.218 526.355 364.624 527.198C366.031 528.042 367.117 529.227 367.884 530.752C368.66 532.278 369.048 534.055 369.048 536.083C369.048 538.112 368.66 539.884 367.884 541.401C367.117 542.918 366.031 544.099 364.624 544.943C363.218 545.786 361.556 546.208 359.638 546.208ZM359.664 542.501C360.704 542.501 361.573 542.215 362.272 541.644C362.971 541.065 363.491 540.289 363.832 539.318C364.181 538.346 364.356 537.264 364.356 536.07C364.356 534.869 364.181 533.782 363.832 532.811C363.491 531.83 362.971 531.051 362.272 530.471C361.573 529.891 360.704 529.602 359.664 529.602C358.599 529.602 357.712 529.891 357.005 530.471C356.306 531.051 355.782 531.83 355.433 532.811C355.092 533.782 354.921 534.869 354.921 536.07C354.921 537.264 355.092 538.346 355.433 539.318C355.782 540.289 356.306 541.065 357.005 541.644C357.712 542.215 358.599 542.501 359.664 542.501ZM390.471 546.208C388.553 546.208 386.891 545.786 385.485 544.943C384.078 544.099 382.988 542.918 382.212 541.401C381.445 539.884 381.061 538.112 381.061 536.083C381.061 534.055 381.445 532.278 382.212 530.752C382.988 529.227 384.078 528.042 385.485 527.198C386.891 526.355 388.553 525.933 390.471 525.933C392.388 525.933 394.05 526.355 395.456 527.198C396.863 528.042 397.949 529.227 398.716 530.752C399.492 532.278 399.88 534.055 399.88 536.083C399.88 538.112 399.492 539.884 398.716 541.401C397.949 542.918 396.863 544.099 395.456 544.943C394.05 545.786 392.388 546.208 390.471 546.208ZM390.496 542.501C391.536 542.501 392.405 542.215 393.104 541.644C393.803 541.065 394.323 540.289 394.664 539.318C395.013 538.346 395.188 537.264 395.188 536.07C395.188 534.869 395.013 533.782 394.664 532.811C394.323 531.83 393.803 531.051 393.104 530.471C392.405 529.891 391.536 529.602 390.496 529.602C389.431 529.602 388.544 529.891 387.837 530.471C387.138 531.051 386.614 531.83 386.265 532.811C385.924 533.782 385.753 534.869 385.753 536.07C385.753 537.264 385.924 538.346 386.265 539.318C386.614 540.289 387.138 541.065 387.837 541.644C388.544 542.215 389.431 542.501 390.496 542.501ZM419.327 531.379L415.109 531.839C414.989 531.413 414.781 531.012 414.482 530.637C414.192 530.262 413.8 529.96 413.306 529.73C412.812 529.499 412.207 529.384 411.491 529.384C410.528 529.384 409.718 529.593 409.062 530.011C408.414 530.428 408.094 530.97 408.103 531.634C408.094 532.205 408.303 532.67 408.729 533.028C409.164 533.386 409.88 533.68 410.877 533.91L414.227 534.626C416.085 535.026 417.465 535.661 418.369 536.531C419.281 537.4 419.741 538.538 419.749 539.944C419.741 541.18 419.379 542.271 418.663 543.217C417.955 544.154 416.971 544.887 415.71 545.416C414.448 545.944 412.999 546.208 411.363 546.208C408.96 546.208 407.025 545.705 405.559 544.7C404.093 543.686 403.219 542.275 402.938 540.468L407.451 540.034C407.656 540.92 408.09 541.589 408.755 542.041C409.42 542.492 410.285 542.718 411.35 542.718C412.45 542.718 413.332 542.492 413.996 542.041C414.67 541.589 415.006 541.031 415.006 540.366C415.006 539.803 414.789 539.339 414.354 538.972C413.928 538.606 413.263 538.325 412.36 538.129L409.011 537.426C407.127 537.034 405.734 536.373 404.83 535.444C403.927 534.507 403.479 533.322 403.488 531.89C403.479 530.68 403.808 529.632 404.472 528.745C405.146 527.85 406.079 527.16 407.272 526.674C408.474 526.18 409.859 525.933 411.427 525.933C413.728 525.933 415.539 526.423 416.86 527.403C418.19 528.383 419.012 529.708 419.327 531.379ZM432.7 545.825V519.643H442.518C444.529 519.643 446.217 519.992 447.58 520.691C448.952 521.39 449.988 522.37 450.687 523.632C451.394 524.884 451.748 526.346 451.748 528.016C451.748 529.695 451.39 531.153 450.674 532.389C449.967 533.616 448.923 534.566 447.542 535.239C446.161 535.904 444.465 536.237 442.454 536.237H435.461V532.299H441.815C442.991 532.299 443.954 532.137 444.704 531.813C445.454 531.481 446.008 530.999 446.366 530.369C446.732 529.73 446.915 528.945 446.915 528.016C446.915 527.087 446.732 526.295 446.366 525.639C445.999 524.974 445.441 524.471 444.691 524.13C443.941 523.781 442.974 523.606 441.789 523.606H437.442V545.825H432.7ZM446.225 533.961L452.707 545.825H447.414L441.048 533.961H446.225ZM464.321 546.208C462.352 546.208 460.652 545.799 459.22 544.981C457.797 544.154 456.702 542.987 455.935 541.478C455.168 539.961 454.784 538.176 454.784 536.122C454.784 534.102 455.168 532.329 455.935 530.803C456.71 529.269 457.793 528.076 459.182 527.224C460.571 526.363 462.203 525.933 464.078 525.933C465.288 525.933 466.43 526.129 467.504 526.521C468.587 526.904 469.541 527.501 470.368 528.311C471.203 529.12 471.859 530.151 472.337 531.404C472.814 532.649 473.053 534.132 473.053 535.853V537.272H456.957V534.153H468.616C468.608 533.266 468.416 532.478 468.041 531.788C467.666 531.089 467.142 530.539 466.469 530.139C465.804 529.738 465.028 529.538 464.142 529.538C463.196 529.538 462.365 529.768 461.649 530.228C460.933 530.68 460.375 531.276 459.974 532.018C459.582 532.751 459.382 533.556 459.374 534.434V537.157C459.374 538.299 459.582 539.279 460 540.097C460.418 540.907 461.001 541.529 461.751 541.964C462.501 542.39 463.379 542.603 464.385 542.603C465.058 542.603 465.668 542.509 466.213 542.322C466.759 542.126 467.232 541.84 467.632 541.465C468.033 541.09 468.335 540.626 468.54 540.072L472.861 540.558C472.588 541.7 472.068 542.697 471.301 543.549C470.543 544.393 469.571 545.049 468.386 545.518C467.202 545.978 465.847 546.208 464.321 546.208ZM481.596 534.319V545.825H476.968V526.188H481.391V529.525H481.621C482.073 528.426 482.793 527.552 483.782 526.904C484.779 526.257 486.01 525.933 487.476 525.933C488.831 525.933 490.012 526.222 491.017 526.802C492.032 527.382 492.816 528.221 493.37 529.32C493.932 530.42 494.209 531.754 494.201 533.322V545.825H489.573V534.038C489.573 532.725 489.232 531.698 488.55 530.957C487.877 530.215 486.944 529.845 485.75 529.845C484.941 529.845 484.221 530.024 483.59 530.382C482.968 530.731 482.478 531.238 482.12 531.903C481.77 532.568 481.596 533.373 481.596 534.319ZM508.711 526.188V529.768H497.422V526.188H508.711ZM500.209 521.484H504.837V539.918C504.837 540.541 504.931 541.018 505.118 541.35C505.314 541.674 505.57 541.896 505.885 542.015C506.201 542.134 506.55 542.194 506.934 542.194C507.223 542.194 507.488 542.173 507.726 542.13C507.973 542.087 508.161 542.049 508.289 542.015L509.069 545.633C508.821 545.718 508.468 545.812 508.007 545.914C507.556 546.016 507.002 546.076 506.346 546.093C505.186 546.127 504.142 545.953 503.213 545.569C502.284 545.177 501.547 544.572 501.002 543.754C500.465 542.936 500.201 541.913 500.209 540.686V521.484ZM512.581 545.825V526.188H517.209V545.825H512.581ZM514.908 523.401C514.175 523.401 513.544 523.159 513.016 522.673C512.487 522.178 512.223 521.586 512.223 520.896C512.223 520.197 512.487 519.605 513.016 519.119C513.544 518.624 514.175 518.377 514.908 518.377C515.649 518.377 516.28 518.624 516.8 519.119C517.328 519.605 517.592 520.197 517.592 520.896C517.592 521.586 517.328 522.178 516.8 522.673C516.28 523.159 515.649 523.401 514.908 523.401ZM530.661 546.208C528.692 546.208 526.992 545.799 525.56 544.981C524.137 544.154 523.042 542.987 522.275 541.478C521.507 539.961 521.124 538.176 521.124 536.122C521.124 534.102 521.507 532.329 522.275 530.803C523.05 529.269 524.132 528.076 525.522 527.224C526.911 526.363 528.543 525.933 530.418 525.933C531.628 525.933 532.77 526.129 533.844 526.521C534.926 526.904 535.881 527.501 536.708 528.311C537.543 529.12 538.199 530.151 538.676 531.404C539.154 532.649 539.392 534.132 539.392 535.853V537.272H523.297V534.153H534.956C534.948 533.266 534.756 532.478 534.381 531.788C534.006 531.089 533.482 530.539 532.809 530.139C532.144 529.738 531.368 529.538 530.482 529.538C529.536 529.538 528.705 529.768 527.989 530.228C527.273 530.68 526.715 531.276 526.314 532.018C525.922 532.751 525.722 533.556 525.713 534.434V537.157C525.713 538.299 525.922 539.279 526.34 540.097C526.757 540.907 527.341 541.529 528.091 541.964C528.841 542.39 529.719 542.603 530.725 542.603C531.398 542.603 532.007 542.509 532.553 542.322C533.098 542.126 533.571 541.84 533.972 541.465C534.373 541.09 534.675 540.626 534.88 540.072L539.201 540.558C538.928 541.7 538.408 542.697 537.641 543.549C536.882 544.393 535.911 545.049 534.726 545.518C533.542 545.978 532.186 546.208 530.661 546.208ZM558.827 531.379L554.609 531.839C554.489 531.413 554.281 531.012 553.982 530.637C553.692 530.262 553.3 529.96 552.806 529.73C552.312 529.499 551.707 529.384 550.991 529.384C550.028 529.384 549.218 529.593 548.562 530.011C547.914 530.428 547.594 530.97 547.603 531.634C547.594 532.205 547.803 532.67 548.229 533.028C548.664 533.386 549.38 533.68 550.377 533.91L553.727 534.626C555.585 535.026 556.965 535.661 557.869 536.531C558.781 537.4 559.241 538.538 559.249 539.944C559.241 541.18 558.879 542.271 558.163 543.217C557.455 544.154 556.471 544.887 555.21 545.416C553.948 545.944 552.499 546.208 550.863 546.208C548.46 546.208 546.525 545.705 545.059 544.7C543.593 543.686 542.719 542.275 542.438 540.468L546.951 540.034C547.156 540.92 547.59 541.589 548.255 542.041C548.92 542.492 549.785 542.718 550.85 542.718C551.95 542.718 552.832 542.492 553.496 542.041C554.17 541.589 554.506 541.031 554.506 540.366C554.506 539.803 554.289 539.339 553.854 538.972C553.428 538.606 552.763 538.325 551.86 538.129L548.511 537.426C546.627 537.034 545.234 536.373 544.33 535.444C543.427 534.507 542.979 533.322 542.988 531.89C542.979 530.68 543.308 529.632 543.972 528.745C544.646 527.85 545.579 527.16 546.772 526.674C547.974 526.18 549.359 525.933 550.927 525.933C553.228 525.933 555.039 526.423 556.36 527.403C557.69 528.383 558.512 529.708 558.827 531.379ZM577.646 546.221C576.401 546.221 575.281 545.999 574.283 545.556C573.295 545.105 572.511 544.44 571.931 543.562C571.36 542.684 571.075 541.602 571.075 540.315C571.075 539.207 571.279 538.291 571.688 537.566C572.097 536.842 572.656 536.262 573.363 535.828C574.07 535.393 574.867 535.065 575.754 534.843C576.648 534.613 577.573 534.447 578.528 534.345C579.678 534.225 580.612 534.119 581.327 534.025C582.043 533.923 582.563 533.769 582.887 533.565C583.219 533.352 583.386 533.024 583.386 532.58V532.504C583.386 531.541 583.1 530.795 582.529 530.266C581.958 529.738 581.136 529.474 580.062 529.474C578.928 529.474 578.029 529.721 577.364 530.215C576.708 530.71 576.265 531.293 576.035 531.967L571.714 531.353C572.055 530.16 572.617 529.163 573.401 528.362C574.185 527.552 575.144 526.947 576.278 526.546C577.411 526.137 578.664 525.933 580.036 525.933C580.982 525.933 581.924 526.043 582.862 526.265C583.799 526.487 584.656 526.853 585.431 527.364C586.207 527.867 586.829 528.553 587.298 529.423C587.775 530.292 588.013 531.379 588.013 532.683V545.825H583.565V543.127H583.411C583.13 543.673 582.734 544.184 582.222 544.661C581.719 545.13 581.085 545.509 580.317 545.799C579.559 546.08 578.668 546.221 577.646 546.221ZM578.847 542.82C579.776 542.82 580.582 542.637 581.263 542.271C581.945 541.896 582.469 541.401 582.836 540.788C583.211 540.174 583.398 539.505 583.398 538.781V536.467C583.254 536.586 583.006 536.697 582.657 536.799C582.316 536.901 581.933 536.991 581.506 537.068C581.08 537.144 580.658 537.212 580.241 537.272C579.823 537.332 579.461 537.383 579.154 537.426C578.464 537.519 577.846 537.673 577.3 537.886C576.755 538.099 576.325 538.397 576.009 538.781C575.694 539.156 575.536 539.641 575.536 540.238C575.536 541.09 575.847 541.734 576.469 542.168C577.092 542.603 577.884 542.82 578.847 542.82ZM578.553 523.606L574.629 517.764H579.167L582.018 523.606H578.553ZM608.187 531.379L603.968 531.839C603.849 531.413 603.64 531.012 603.342 530.637C603.052 530.262 602.66 529.96 602.165 529.73C601.671 529.499 601.066 529.384 600.35 529.384C599.387 529.384 598.577 529.593 597.921 530.011C597.273 530.428 596.954 530.97 596.962 531.634C596.954 532.205 597.163 532.67 597.589 533.028C598.023 533.386 598.739 533.68 599.737 533.91L603.086 534.626C604.944 535.026 606.325 535.661 607.228 536.531C608.14 537.4 608.6 538.538 608.609 539.944C608.6 541.18 608.238 542.271 607.522 543.217C606.815 544.154 605.83 544.887 604.569 545.416C603.308 545.944 601.859 546.208 600.222 546.208C597.819 546.208 595.884 545.705 594.418 544.7C592.952 543.686 592.079 542.275 591.798 540.468L596.31 540.034C596.515 540.92 596.95 541.589 597.614 542.041C598.279 542.492 599.144 542.718 600.21 542.718C601.309 542.718 602.191 542.492 602.856 542.041C603.529 541.589 603.866 541.031 603.866 540.366C603.866 539.803 603.648 539.339 603.214 538.972C602.788 538.606 602.123 538.325 601.219 538.129L597.87 537.426C595.987 537.034 594.593 536.373 593.69 535.444C592.786 534.507 592.339 533.322 592.347 531.89C592.339 530.68 592.667 529.632 593.332 528.745C594.005 527.85 594.938 527.16 596.131 526.674C597.333 526.18 598.718 525.933 600.286 525.933C602.587 525.933 604.398 526.423 605.719 527.403C607.049 528.383 607.871 529.708 608.187 531.379ZM625.982 534.319V545.825H621.354V526.188H625.778V529.525H626.008C626.46 528.426 627.18 527.552 628.168 526.904C629.165 526.257 630.397 525.933 631.863 525.933C633.218 525.933 634.398 526.222 635.404 526.802C636.418 527.382 637.202 528.221 637.756 529.32C638.319 530.42 638.596 531.754 638.587 533.322V545.825H633.96V534.038C633.96 532.725 633.619 531.698 632.937 530.957C632.263 530.215 631.33 529.845 630.137 529.845C629.327 529.845 628.607 530.024 627.977 530.382C627.354 530.731 626.864 531.238 626.506 531.903C626.157 532.568 625.982 533.373 625.982 534.319ZM651.857 546.208C649.94 546.208 648.278 545.786 646.871 544.943C645.465 544.099 644.374 542.918 643.599 541.401C642.832 539.884 642.448 538.112 642.448 536.083C642.448 534.055 642.832 532.278 643.599 530.752C644.374 529.227 645.465 528.042 646.871 527.198C648.278 526.355 649.94 525.933 651.857 525.933C653.775 525.933 655.437 526.355 656.843 527.198C658.249 528.042 659.336 529.227 660.103 530.752C660.879 532.278 661.266 534.055 661.266 536.083C661.266 538.112 660.879 539.884 660.103 541.401C659.336 542.918 658.249 544.099 656.843 544.943C655.437 545.786 653.775 546.208 651.857 546.208ZM651.883 542.501C652.923 542.501 653.792 542.215 654.491 541.644C655.19 541.065 655.71 540.289 656.05 539.318C656.4 538.346 656.575 537.264 656.575 536.07C656.575 534.869 656.4 533.782 656.05 532.811C655.71 531.83 655.19 531.051 654.491 530.471C653.792 529.891 652.923 529.602 651.883 529.602C650.817 529.602 649.931 529.891 649.224 530.471C648.525 531.051 648.001 531.83 647.651 532.811C647.31 533.782 647.14 534.869 647.14 536.07C647.14 537.264 647.31 538.346 647.651 539.318C648.001 540.289 648.525 541.065 649.224 541.644C649.931 542.215 650.817 542.501 651.883 542.501ZM682.066 526.188L675.073 545.825H669.96L662.967 526.188H667.901L672.414 540.775H672.619L677.144 526.188H682.066ZM685.268 545.825V526.188H689.896V545.825H685.268ZM687.595 523.401C686.862 523.401 686.232 523.159 685.703 522.673C685.175 522.178 684.911 521.586 684.911 520.896C684.911 520.197 685.175 519.605 685.703 519.119C686.232 518.624 686.862 518.377 687.595 518.377C688.337 518.377 688.967 518.624 689.487 519.119C690.016 519.605 690.28 520.197 690.28 520.896C690.28 521.586 690.016 522.178 689.487 522.673C688.967 523.159 688.337 523.401 687.595 523.401ZM701.942 546.17C700.4 546.17 699.019 545.774 697.8 544.981C696.581 544.188 695.618 543.038 694.911 541.529C694.203 540.021 693.85 538.188 693.85 536.032C693.85 533.85 694.208 532.009 694.924 530.509C695.648 529.001 696.624 527.863 697.851 527.096C699.078 526.32 700.446 525.933 701.955 525.933C703.105 525.933 704.051 526.129 704.793 526.521C705.534 526.904 706.123 527.369 706.557 527.914C706.992 528.451 707.328 528.958 707.567 529.436H707.759V519.643H712.4V545.825H707.848V542.731H707.567C707.328 543.208 706.983 543.715 706.532 544.252C706.08 544.781 705.483 545.232 704.742 545.607C704 545.982 703.067 546.17 701.942 546.17ZM703.233 542.373C704.213 542.373 705.049 542.109 705.739 541.58C706.429 541.043 706.953 540.298 707.311 539.343C707.669 538.389 707.848 537.276 707.848 536.007C707.848 534.737 707.669 533.633 707.311 532.695C706.962 531.758 706.442 531.029 705.752 530.509C705.07 529.989 704.23 529.73 703.233 529.73C702.202 529.73 701.341 529.998 700.651 530.535C699.961 531.072 699.441 531.813 699.091 532.759C698.742 533.705 698.567 534.788 698.567 536.007C698.567 537.234 698.742 538.329 699.091 539.292C699.449 540.247 699.973 541.001 700.664 541.555C701.363 542.1 702.219 542.373 703.233 542.373ZM722.982 546.221C721.737 546.221 720.616 545.999 719.619 545.556C718.631 545.105 717.847 544.44 717.267 543.562C716.696 542.684 716.411 541.602 716.411 540.315C716.411 539.207 716.615 538.291 717.024 537.566C717.433 536.842 717.991 536.262 718.699 535.828C719.406 535.393 720.203 535.065 721.089 534.843C721.984 534.613 722.909 534.447 723.864 534.345C725.014 534.225 725.947 534.119 726.663 534.025C727.379 533.923 727.899 533.769 728.223 533.565C728.555 533.352 728.722 533.024 728.722 532.58V532.504C728.722 531.541 728.436 530.795 727.865 530.266C727.294 529.738 726.472 529.474 725.398 529.474C724.264 529.474 723.365 529.721 722.7 530.215C722.044 530.71 721.601 531.293 721.371 531.967L717.05 531.353C717.391 530.16 717.953 529.163 718.737 528.362C719.521 527.552 720.48 526.947 721.614 526.546C722.747 526.137 724 525.933 725.372 525.933C726.318 525.933 727.26 526.043 728.197 526.265C729.135 526.487 729.991 526.853 730.767 527.364C731.543 527.867 732.165 528.553 732.634 529.423C733.111 530.292 733.349 531.379 733.349 532.683V545.825H728.901V543.127H728.747C728.466 543.673 728.07 544.184 727.558 544.661C727.055 545.13 726.42 545.509 725.653 545.799C724.895 546.08 724.004 546.221 722.982 546.221ZM724.183 542.82C725.112 542.82 725.918 542.637 726.599 542.271C727.281 541.896 727.805 541.401 728.172 540.788C728.547 540.174 728.734 539.505 728.734 538.781V536.467C728.589 536.586 728.342 536.697 727.993 536.799C727.652 536.901 727.268 536.991 726.842 537.068C726.416 537.144 725.994 537.212 725.577 537.272C725.159 537.332 724.797 537.383 724.49 537.426C723.8 537.519 723.182 537.673 722.636 537.886C722.091 538.099 721.661 538.397 721.345 538.781C721.03 539.156 720.872 539.641 720.872 540.238C720.872 541.09 721.183 541.734 721.805 542.168C722.428 542.603 723.22 542.82 724.183 542.82ZM745.29 546.17C743.747 546.17 742.366 545.774 741.148 544.981C739.929 544.188 738.966 543.038 738.259 541.529C737.551 540.021 737.197 538.188 737.197 536.032C737.197 533.85 737.555 532.009 738.271 530.509C738.996 529.001 739.972 527.863 741.199 527.096C742.426 526.32 743.794 525.933 745.303 525.933C746.453 525.933 747.399 526.129 748.141 526.521C748.882 526.904 749.47 527.369 749.905 527.914C750.339 528.451 750.676 528.958 750.915 529.436H751.107V519.643H755.747V545.825H751.196V542.731H750.915C750.676 543.208 750.331 543.715 749.879 544.252C749.428 544.781 748.831 545.232 748.089 545.607C747.348 545.982 746.415 546.17 745.29 546.17ZM746.581 542.373C747.561 542.373 748.396 542.109 749.087 541.58C749.777 541.043 750.301 540.298 750.659 539.343C751.017 538.389 751.196 537.276 751.196 536.007C751.196 534.737 751.017 533.633 750.659 532.695C750.31 531.758 749.79 531.029 749.099 530.509C748.418 529.989 747.578 529.73 746.581 529.73C745.55 529.73 744.689 529.998 743.999 530.535C743.308 531.072 742.788 531.813 742.439 532.759C742.089 533.705 741.915 534.788 741.915 536.007C741.915 537.234 742.089 538.329 742.439 539.292C742.797 540.247 743.321 541.001 744.011 541.555C744.71 542.1 745.567 542.373 746.581 542.373ZM769.372 546.208C767.403 546.208 765.703 545.799 764.271 544.981C762.848 544.154 761.752 542.987 760.985 541.478C760.218 539.961 759.835 538.176 759.835 536.122C759.835 534.102 760.218 532.329 760.985 530.803C761.761 529.269 762.843 528.076 764.233 527.224C765.622 526.363 767.254 525.933 769.129 525.933C770.339 525.933 771.481 526.129 772.555 526.521C773.637 526.904 774.592 527.501 775.419 528.311C776.254 529.12 776.91 530.151 777.387 531.404C777.865 532.649 778.103 534.132 778.103 535.853V537.272H762.008V534.153H773.667C773.659 533.266 773.467 532.478 773.092 531.788C772.717 531.089 772.193 530.539 771.52 530.139C770.855 529.738 770.079 529.538 769.193 529.538C768.247 529.538 767.416 529.768 766.7 530.228C765.984 530.68 765.426 531.276 765.025 532.018C764.633 532.751 764.433 533.556 764.424 534.434V537.157C764.424 538.299 764.633 539.279 765.051 540.097C765.468 540.907 766.052 541.529 766.802 541.964C767.552 542.39 768.43 542.603 769.436 542.603C770.109 542.603 770.718 542.509 771.264 542.322C771.809 542.126 772.282 541.84 772.683 541.465C773.083 541.09 773.386 540.626 773.591 540.072L777.912 540.558C777.639 541.7 777.119 542.697 776.352 543.549C775.593 544.393 774.622 545.049 773.437 545.518C772.252 545.978 770.897 546.208 769.372 546.208ZM797.538 531.379L793.32 531.839C793.2 531.413 792.991 531.012 792.693 530.637C792.403 530.262 792.011 529.96 791.517 529.73C791.023 529.499 790.418 529.384 789.702 529.384C788.739 529.384 787.929 529.593 787.273 530.011C786.625 530.428 786.305 530.97 786.314 531.634C786.305 532.205 786.514 532.67 786.94 533.028C787.375 533.386 788.091 533.68 789.088 533.91L792.438 534.626C794.295 535.026 795.676 535.661 796.58 536.531C797.491 537.4 797.952 538.538 797.96 539.944C797.952 541.18 797.589 542.271 796.874 543.217C796.166 544.154 795.182 544.887 793.92 545.416C792.659 545.944 791.21 546.208 789.574 546.208C787.17 546.208 785.236 545.705 783.77 544.7C782.304 543.686 781.43 542.275 781.149 540.468L785.662 540.034C785.866 540.92 786.301 541.589 786.966 542.041C787.631 542.492 788.496 542.718 789.561 542.718C790.661 542.718 791.543 542.492 792.207 542.041C792.881 541.589 793.217 541.031 793.217 540.366C793.217 539.803 793 539.339 792.565 538.972C792.139 538.606 791.474 538.325 790.571 538.129L787.222 537.426C785.338 537.034 783.945 536.373 783.041 535.444C782.138 534.507 781.69 533.322 781.699 531.89C781.69 530.68 782.018 529.632 782.683 528.745C783.357 527.85 784.29 527.16 785.483 526.674C786.685 526.18 788.07 525.933 789.638 525.933C791.939 525.933 793.75 526.423 795.071 527.403C796.401 528.383 797.223 529.708 797.538 531.379ZM817.993 546.17C816.45 546.17 815.07 545.774 813.851 544.981C812.632 544.188 811.669 543.038 810.962 541.529C810.254 540.021 809.901 538.188 809.901 536.032C809.901 533.85 810.259 532.009 810.974 530.509C811.699 529.001 812.675 527.863 813.902 527.096C815.129 526.32 816.497 525.933 818.006 525.933C819.156 525.933 820.102 526.129 820.844 526.521C821.585 526.904 822.173 527.369 822.608 527.914C823.043 528.451 823.379 528.958 823.618 529.436H823.81V519.643H828.45V545.825H823.899V542.731H823.618C823.379 543.208 823.034 543.715 822.582 544.252C822.131 544.781 821.534 545.232 820.793 545.607C820.051 545.982 819.118 546.17 817.993 546.17ZM819.284 542.373C820.264 542.373 821.099 542.109 821.79 541.58C822.48 541.043 823.004 540.298 823.362 539.343C823.72 538.389 823.899 537.276 823.899 536.007C823.899 534.737 823.72 533.633 823.362 532.695C823.013 531.758 822.493 531.029 821.803 530.509C821.121 529.989 820.281 529.73 819.284 529.73C818.253 529.73 817.392 529.998 816.702 530.535C816.011 531.072 815.491 531.813 815.142 532.759C814.793 533.705 814.618 534.788 814.618 536.007C814.618 537.234 814.793 538.329 815.142 539.292C815.5 540.247 816.024 541.001 816.714 541.555C817.413 542.1 818.27 542.373 819.284 542.373ZM842.075 546.208C840.106 546.208 838.406 545.799 836.974 544.981C835.551 544.154 834.456 542.987 833.689 541.478C832.922 539.961 832.538 538.176 832.538 536.122C832.538 534.102 832.922 532.329 833.689 530.803C834.464 529.269 835.547 528.076 836.936 527.224C838.325 526.363 839.957 525.933 841.832 525.933C843.042 525.933 844.184 526.129 845.258 526.521C846.341 526.904 847.295 527.501 848.122 528.311C848.957 529.12 849.613 530.151 850.091 531.404C850.568 532.649 850.806 534.132 850.806 535.853V537.272H834.711V534.153H846.37C846.362 533.266 846.17 532.478 845.795 531.788C845.42 531.089 844.896 530.539 844.223 530.139C843.558 529.738 842.782 529.538 841.896 529.538C840.95 529.538 840.119 529.768 839.403 530.228C838.687 530.68 838.129 531.276 837.728 532.018C837.336 532.751 837.136 533.556 837.127 534.434V537.157C837.127 538.299 837.336 539.279 837.754 540.097C838.172 540.907 838.755 541.529 839.505 541.964C840.255 542.39 841.133 542.603 842.139 542.603C842.812 542.603 843.422 542.509 843.967 542.322C844.512 542.126 844.985 541.84 845.386 541.465C845.787 541.09 846.089 540.626 846.294 540.072L850.615 540.558C850.342 541.7 849.822 542.697 849.055 543.549C848.297 544.393 847.325 545.049 846.14 545.518C844.956 545.978 843.6 546.208 842.075 546.208ZM862.705 523.619V519.643H883.594V523.619H875.502V545.825H870.798V523.619H862.705ZM893.262 546.208C891.294 546.208 889.593 545.799 888.162 544.981C886.738 544.154 885.643 542.987 884.876 541.478C884.109 539.961 883.725 538.176 883.725 536.122C883.725 534.102 884.109 532.329 884.876 530.803C885.652 529.269 886.734 528.076 888.123 527.224C889.512 526.363 891.145 525.933 893.02 525.933C894.23 525.933 895.372 526.129 896.446 526.521C897.528 526.904 898.483 527.501 899.309 528.311C900.145 529.12 900.801 530.151 901.278 531.404C901.755 532.649 901.994 534.132 901.994 535.853V537.272H885.899V534.153H897.558C897.549 533.266 897.358 532.478 896.983 531.788C896.608 531.089 896.083 530.539 895.41 530.139C894.745 529.738 893.97 529.538 893.083 529.538C892.137 529.538 891.306 529.768 890.591 530.228C889.875 530.68 889.316 531.276 888.916 532.018C888.524 532.751 888.324 533.556 888.315 534.434V537.157C888.315 538.299 888.524 539.279 888.941 540.097C889.359 540.907 889.943 541.529 890.693 541.964C891.443 542.39 892.321 542.603 893.326 542.603C894 542.603 894.609 542.509 895.154 542.322C895.7 542.126 896.173 541.84 896.574 541.465C896.974 541.09 897.277 540.626 897.481 540.072L901.802 540.558C901.529 541.7 901.01 542.697 900.243 543.549C899.484 544.393 898.512 545.049 897.328 545.518C896.143 545.978 894.788 546.208 893.262 546.208ZM914.474 546.208C912.514 546.208 910.831 545.778 909.425 544.917C908.027 544.056 906.949 542.867 906.19 541.35C905.44 539.825 905.065 538.069 905.065 536.083C905.065 534.089 905.449 532.329 906.216 530.803C906.983 529.269 908.065 528.076 909.463 527.224C910.869 526.363 912.531 525.933 914.449 525.933C916.043 525.933 917.453 526.227 918.68 526.815C919.916 527.394 920.901 528.217 921.634 529.282C922.366 530.339 922.784 531.575 922.886 532.989H918.463C918.284 532.043 917.858 531.255 917.185 530.624C916.52 529.985 915.629 529.666 914.513 529.666C913.567 529.666 912.736 529.921 912.02 530.433C911.304 530.936 910.746 531.66 910.345 532.606C909.953 533.552 909.757 534.686 909.757 536.007C909.757 537.345 909.953 538.495 910.345 539.458C910.737 540.413 911.287 541.15 911.994 541.67C912.71 542.181 913.55 542.437 914.513 542.437C915.195 542.437 915.804 542.309 916.341 542.053C916.886 541.789 917.342 541.41 917.709 540.916C918.075 540.421 918.327 539.82 918.463 539.113H922.886C922.776 540.502 922.366 541.734 921.659 542.808C920.952 543.873 919.989 544.708 918.77 545.313C917.551 545.91 916.119 546.208 914.474 546.208ZM931.314 534.319V545.825H926.686V519.643H931.212V529.525H931.442C931.902 528.417 932.614 527.543 933.577 526.904C934.549 526.257 935.784 525.933 937.284 525.933C938.648 525.933 939.837 526.218 940.851 526.789C941.865 527.36 942.65 528.195 943.203 529.295C943.766 530.394 944.047 531.737 944.047 533.322V545.825H939.419V534.038C939.419 532.717 939.078 531.69 938.397 530.957C937.723 530.215 936.777 529.845 935.559 529.845C934.74 529.845 934.007 530.024 933.36 530.382C932.721 530.731 932.218 531.238 931.851 531.903C931.493 532.568 931.314 533.373 931.314 534.319ZM965.518 546.208C963.728 546.208 962.19 545.884 960.903 545.237C959.616 544.589 958.623 543.715 957.924 542.616C957.234 541.508 956.889 540.259 956.889 538.87C956.889 537.822 957.102 536.893 957.528 536.083C957.963 535.274 958.559 534.524 959.318 533.833C960.085 533.143 960.971 532.457 961.977 531.775L966.618 528.617C967.299 528.174 967.815 527.705 968.164 527.211C968.522 526.717 968.701 526.137 968.701 525.472C968.701 524.91 968.463 524.377 967.985 523.874C967.517 523.372 966.869 523.12 966.042 523.12C965.488 523.12 964.998 523.252 964.572 523.516C964.154 523.772 963.826 524.109 963.588 524.526C963.358 524.944 963.243 525.387 963.243 525.856C963.243 526.427 963.4 527.007 963.716 527.595C964.039 528.183 964.457 528.792 964.968 529.423C965.488 530.053 966.042 530.722 966.63 531.43L978.916 545.825H973.904L963.703 534.14C962.944 533.254 962.211 532.38 961.504 531.519C960.805 530.659 960.23 529.764 959.778 528.835C959.335 527.897 959.113 526.883 959.113 525.792C959.113 524.556 959.399 523.453 959.97 522.481C960.541 521.501 961.338 520.73 962.36 520.167C963.392 519.605 964.598 519.323 965.978 519.323C967.359 519.323 968.544 519.596 969.532 520.141C970.521 520.687 971.284 521.411 971.821 522.315C972.358 523.218 972.626 524.203 972.626 525.268C972.626 526.504 972.319 527.612 971.706 528.592C971.092 529.563 970.24 530.445 969.149 531.238L963.856 535.112C962.987 535.742 962.365 536.382 961.99 537.029C961.615 537.668 961.427 538.214 961.427 538.666C961.427 539.356 961.602 539.982 961.951 540.545C962.301 541.107 962.791 541.559 963.422 541.9C964.061 542.232 964.806 542.399 965.659 542.399C966.596 542.399 967.521 542.19 968.433 541.772C969.345 541.346 970.176 540.741 970.926 539.957C971.676 539.173 972.272 538.235 972.716 537.144C973.159 536.045 973.38 534.826 973.38 533.488H977.356C977.356 535.141 977.173 536.582 976.806 537.809C976.44 539.028 975.967 540.059 975.387 540.903C974.808 541.738 974.194 542.407 973.547 542.91C973.342 543.055 973.146 543.2 972.958 543.345C972.771 543.489 972.575 543.634 972.37 543.779C971.45 544.614 970.372 545.228 969.136 545.62C967.909 546.012 966.703 546.208 965.518 546.208ZM990.7 545.825V519.643H1000.52C1002.53 519.643 1004.22 520.018 1005.58 520.768C1006.95 521.518 1007.99 522.549 1008.69 523.862C1009.39 525.166 1009.75 526.649 1009.75 528.311C1009.75 529.989 1009.39 531.481 1008.69 532.785C1007.98 534.089 1006.94 535.116 1005.55 535.866C1004.17 536.607 1002.47 536.978 1000.45 536.978H993.947V533.079H999.815C1000.99 533.079 1001.95 532.874 1002.7 532.465C1003.45 532.056 1004.01 531.494 1004.37 530.778C1004.73 530.062 1004.92 529.239 1004.92 528.311C1004.92 527.382 1004.73 526.563 1004.37 525.856C1004.01 525.149 1003.45 524.599 1002.69 524.207C1001.94 523.806 1000.97 523.606 999.789 523.606H995.442V545.825H990.7ZM1013.66 545.825V526.188H1018.15V529.461H1018.35C1018.71 528.328 1019.33 527.454 1020.2 526.84C1021.07 526.218 1022.07 525.907 1023.2 525.907C1023.46 525.907 1023.74 525.92 1024.06 525.945C1024.38 525.962 1024.65 525.992 1024.86 526.035V530.292C1024.67 530.224 1024.35 530.164 1023.93 530.113C1023.51 530.053 1023.11 530.024 1022.71 530.024C1021.87 530.024 1021.11 530.207 1020.44 530.573C1019.77 530.931 1019.25 531.43 1018.87 532.069C1018.48 532.708 1018.29 533.445 1018.29 534.281V545.825H1013.66ZM1035.69 546.208C1033.78 546.208 1032.11 545.786 1030.71 544.943C1029.3 544.099 1028.21 542.918 1027.43 541.401C1026.67 539.884 1026.28 538.112 1026.28 536.083C1026.28 534.055 1026.67 532.278 1027.43 530.752C1028.21 529.227 1029.3 528.042 1030.71 527.198C1032.11 526.355 1033.78 525.933 1035.69 525.933C1037.61 525.933 1039.27 526.355 1040.68 527.198C1042.09 528.042 1043.17 529.227 1043.94 530.752C1044.71 532.278 1045.1 534.055 1045.1 536.083C1045.1 538.112 1044.71 539.884 1043.94 541.401C1043.17 542.918 1042.09 544.099 1040.68 544.943C1039.27 545.786 1037.61 546.208 1035.69 546.208ZM1035.72 542.501C1036.76 542.501 1037.63 542.215 1038.33 541.644C1039.03 541.065 1039.55 540.289 1039.89 539.318C1040.24 538.346 1040.41 537.264 1040.41 536.07C1040.41 534.869 1040.24 533.782 1039.89 532.811C1039.55 531.83 1039.03 531.051 1038.33 530.471C1037.63 529.891 1036.76 529.602 1035.72 529.602C1034.65 529.602 1033.77 529.891 1033.06 530.471C1032.36 531.051 1031.84 531.83 1031.49 532.811C1031.15 533.782 1030.98 534.869 1030.98 536.07C1030.98 537.264 1031.15 538.346 1031.49 539.318C1031.84 540.289 1032.36 541.065 1033.06 541.644C1033.77 542.215 1034.65 542.501 1035.72 542.501ZM1056.32 546.17C1054.77 546.17 1053.39 545.774 1052.18 544.981C1050.96 544.188 1049.99 543.038 1049.29 541.529C1048.58 540.021 1048.22 538.188 1048.22 536.032C1048.22 533.85 1048.58 532.009 1049.3 530.509C1050.02 529.001 1051 527.863 1052.23 527.096C1053.45 526.32 1054.82 525.933 1056.33 525.933C1057.48 525.933 1058.43 526.129 1059.17 526.521C1059.91 526.904 1060.5 527.369 1060.93 527.914C1061.37 528.451 1061.7 528.958 1061.94 529.436H1062.13V519.643H1066.77V545.825H1062.22V542.731H1061.94C1061.7 543.208 1061.36 543.715 1060.91 544.252C1060.45 544.781 1059.86 545.232 1059.12 545.607C1058.38 545.982 1057.44 546.17 1056.32 546.17ZM1057.61 542.373C1058.59 542.373 1059.42 542.109 1060.11 541.58C1060.8 541.043 1061.33 540.298 1061.69 539.343C1062.04 538.389 1062.22 537.276 1062.22 536.007C1062.22 534.737 1062.04 533.633 1061.69 532.695C1061.34 531.758 1060.82 531.029 1060.13 530.509C1059.44 529.989 1058.61 529.73 1057.61 529.73C1056.58 529.73 1055.72 529.998 1055.03 530.535C1054.34 531.072 1053.82 531.813 1053.47 532.759C1053.12 533.705 1052.94 534.788 1052.94 536.007C1052.94 537.234 1053.12 538.329 1053.47 539.292C1053.82 540.247 1054.35 541.001 1055.04 541.555C1055.74 542.1 1056.59 542.373 1057.61 542.373ZM1077.37 519.643L1076.95 538.129H1072.83L1072.42 519.643H1077.37ZM1074.89 546.106C1074.11 546.106 1073.45 545.833 1072.89 545.288C1072.35 544.742 1072.08 544.078 1072.08 543.293C1072.08 542.526 1072.35 541.87 1072.89 541.325C1073.45 540.779 1074.11 540.507 1074.89 540.507C1075.65 540.507 1076.3 540.779 1076.86 541.325C1077.42 541.87 1077.7 542.526 1077.7 543.293C1077.7 543.813 1077.57 544.286 1077.31 544.712C1077.05 545.139 1076.71 545.48 1076.28 545.735C1075.87 545.982 1075.4 546.106 1074.89 546.106Z" fill="black"/>
<path d="M115.337 894.253V902.923C115.338 903.023 115.318 903.123 115.276 903.214C115.235 903.306 115.174 903.387 115.098 903.453C115.022 903.519 114.932 903.568 114.835 903.597C114.738 903.625 114.636 903.633 114.536 903.618C113.729 903.495 112.914 903.435 112.098 903.44C109.799 903.44 107.92 904.176 106.458 905.648C104.996 907.121 104.266 909.397 104.266 912.478V926.312C104.266 926.496 104.192 926.673 104.06 926.803C103.929 926.934 103.75 927.007 103.564 927.007H94.7012C94.5152 927.007 94.3369 926.934 94.2054 926.803C94.0739 926.673 94 926.496 94 926.312V894.406C94 894.222 94.0739 894.045 94.2054 893.914C94.3369 893.784 94.5152 893.711 94.7012 893.711H103.228C103.414 893.711 103.592 893.784 103.724 893.914C103.855 894.045 103.929 894.222 103.929 894.406V895.88C103.929 896.021 103.972 896.159 104.052 896.275C104.133 896.391 104.247 896.48 104.38 896.53C104.513 896.581 104.658 896.59 104.796 896.556C104.934 896.523 105.059 896.449 105.154 896.343C105.845 895.57 106.693 894.95 107.643 894.524C109.205 893.786 110.91 893.394 112.64 893.377C113.363 893.37 114.086 893.437 114.795 893.576C114.949 893.612 115.087 893.698 115.185 893.821C115.284 893.944 115.337 894.096 115.337 894.253V894.253Z" fill="#13100D"/>
<path d="M142.761 915.171L150.037 917.217C150.127 917.244 150.211 917.288 150.284 917.347C150.357 917.406 150.417 917.479 150.46 917.562C150.504 917.644 150.53 917.735 150.538 917.828C150.546 917.921 150.534 918.014 150.505 918.103C149.577 920.884 147.783 923.302 145.381 925.009C142.679 926.994 139.304 927.988 135.254 927.989C130.392 927.989 126.263 926.382 122.866 923.169C119.469 919.955 117.774 915.648 117.782 910.248C117.782 905.071 119.436 900.853 122.744 897.595C126.052 894.336 129.98 892.707 134.527 892.707C139.748 892.707 143.856 894.213 146.849 897.226C149.842 900.239 151.339 904.423 151.339 909.778C151.339 910.909 151.309 911.75 151.25 912.306C151.231 912.477 151.149 912.635 151.02 912.749C150.89 912.864 150.722 912.926 150.549 912.925H128.553C128.45 912.924 128.347 912.945 128.254 912.987C128.16 913.029 128.076 913.091 128.009 913.169C127.942 913.246 127.894 913.338 127.866 913.436C127.839 913.535 127.834 913.638 127.851 913.739C128.117 915.236 128.93 916.583 130.135 917.523C131.609 918.747 133.479 919.4 135.401 919.363C138.634 919.363 140.81 918.103 141.927 915.581C141.991 915.423 142.112 915.294 142.265 915.219C142.419 915.143 142.596 915.126 142.761 915.171ZM128.803 906.364H140.62C140.724 906.366 140.827 906.345 140.921 906.302C141.016 906.26 141.1 906.197 141.167 906.119C141.234 906.04 141.282 905.948 141.309 905.849C141.336 905.749 141.34 905.645 141.321 905.544C141.088 904.357 140.5 903.267 139.634 902.415C138.531 901.3 136.877 900.742 134.672 900.742C132.69 900.742 131.114 901.322 129.946 902.482C129.07 903.308 128.442 904.358 128.132 905.516C128.109 905.617 128.109 905.721 128.132 905.822C128.155 905.923 128.2 906.017 128.264 906.098C128.328 906.179 128.41 906.245 128.503 906.291C128.596 906.337 128.699 906.362 128.803 906.364V906.364Z" fill="#13100D"/>
<path d="M164.01 907.905V926.29C164.01 926.475 163.936 926.652 163.804 926.782C163.673 926.912 163.494 926.986 163.308 926.986H154.445C154.259 926.986 154.081 926.912 153.95 926.782C153.818 926.652 153.744 926.475 153.744 926.29V894.406C153.744 894.221 153.818 894.044 153.95 893.914C154.081 893.784 154.259 893.71 154.445 893.71H162.972C163.158 893.71 163.336 893.784 163.468 893.914C163.599 894.044 163.673 894.221 163.673 894.406V895.483C163.675 895.62 163.717 895.753 163.794 895.866C163.871 895.979 163.98 896.067 164.108 896.119C164.235 896.171 164.375 896.184 164.51 896.158C164.645 896.131 164.77 896.066 164.867 895.97C165.664 895.18 166.597 894.54 167.623 894.079C169.32 893.272 171.176 892.85 173.057 892.841C177.064 892.841 180.102 894.077 182.173 896.549C184.244 899.021 185.279 902.202 185.279 906.091V926.283C185.279 926.468 185.205 926.645 185.074 926.775C184.942 926.905 184.764 926.979 184.578 926.979H175.713C175.527 926.979 175.348 926.905 175.217 926.775C175.085 926.645 175.011 926.468 175.011 926.283V907.838C175.011 906.097 174.55 904.702 173.628 903.653C172.705 902.604 171.343 902.079 169.542 902.079C167.878 902.079 166.539 902.626 165.524 903.72C164.51 904.814 164.005 906.209 164.01 907.905Z" fill="#13100D"/>
<path d="M203.637 915.069C203.637 917.386 204.875 918.545 207.351 918.545C207.978 918.54 208.603 918.483 209.221 918.374C209.322 918.355 209.425 918.359 209.524 918.385C209.624 918.411 209.716 918.458 209.795 918.523C209.874 918.588 209.937 918.669 209.981 918.761C210.025 918.853 210.048 918.953 210.048 919.055V926.195C210.049 926.333 210.008 926.468 209.931 926.583C209.854 926.697 209.744 926.787 209.616 926.84C208.392 927.333 206.756 927.581 204.707 927.584C201.24 927.584 198.506 926.623 196.503 924.703C194.501 922.783 193.504 920.174 193.512 916.877V903.31C193.512 903.125 193.438 902.949 193.306 902.818C193.175 902.688 192.996 902.614 192.81 902.614H188.267C188.081 902.614 187.902 902.541 187.771 902.411C187.639 902.28 187.565 902.104 187.565 901.919V894.406C187.565 894.221 187.639 894.045 187.771 893.914C187.902 893.784 188.081 893.71 188.267 893.71H192.708C192.893 893.71 193.072 893.637 193.203 893.507C193.335 893.376 193.409 893.2 193.409 893.015V884.695C193.409 884.511 193.483 884.334 193.614 884.204C193.746 884.073 193.924 884 194.11 884H202.938C203.124 884 203.302 884.073 203.434 884.204C203.565 884.334 203.639 884.511 203.639 884.695L203.637 915.069Z" fill="#13100D"/>
<path d="M250.383 904.487C250.561 904.433 250.709 904.312 250.797 904.15C250.884 903.988 250.904 903.799 250.851 903.622C248.803 896.874 242.544 892.54 234.901 892.707C223.308 892.579 215.489 902.686 217.481 913.745C217.499 913.842 217.538 913.933 217.595 914.014C217.652 914.094 217.725 914.162 217.81 914.212C217.895 914.263 217.99 914.295 218.088 914.306C218.186 914.317 218.286 914.308 218.381 914.278C220.599 913.583 223.927 912.557 226.926 911.63C227.073 911.583 227.2 911.489 227.288 911.364C227.376 911.238 227.419 911.087 227.412 910.934C227.103 906.067 230.091 902.046 235.104 902.072C238.299 902.012 240.62 903.71 241.649 906.401C241.709 906.568 241.832 906.706 241.992 906.786C242.152 906.867 242.337 906.883 242.509 906.832L250.383 904.487Z" fill="#13100D"/>
<path d="M279.406 924.884C279.394 924.746 279.341 924.615 279.254 924.508C279.167 924.4 279.049 924.32 278.917 924.279C278.784 924.238 278.641 924.237 278.508 924.276C278.374 924.315 278.256 924.393 278.167 924.499C277.492 925.306 276.679 925.989 275.764 926.515C274.094 927.473 272.191 927.959 270.262 927.922C265.355 927.922 261.349 926.26 258.244 922.935C255.138 919.61 253.584 915.381 253.581 910.248C253.581 905.206 255.088 901.021 258.103 897.694C261.118 894.368 265.058 892.705 269.921 892.707C272.57 892.707 274.662 893.232 276.199 894.281C276.863 894.726 277.479 895.237 278.038 895.806C278.136 895.903 278.26 895.969 278.395 895.997C278.53 896.025 278.671 896.012 278.799 895.961C278.927 895.91 279.037 895.822 279.115 895.709C279.193 895.596 279.235 895.463 279.237 895.326V894.399C279.237 894.214 279.311 894.038 279.443 893.907C279.574 893.777 279.753 893.704 279.939 893.704H288.467C288.653 893.704 288.832 893.777 288.963 893.907C289.095 894.038 289.169 894.214 289.169 894.399V921.027C289.169 922.779 289.237 924.515 289.374 926.235C289.382 926.331 289.37 926.427 289.338 926.518C289.306 926.609 289.256 926.692 289.19 926.763C289.124 926.833 289.044 926.89 288.955 926.928C288.866 926.966 288.77 926.986 288.673 926.986H280.226C280.05 926.986 279.88 926.922 279.75 926.804C279.621 926.686 279.54 926.525 279.525 926.351C279.473 925.783 279.436 925.299 279.406 924.884ZM263.916 910.316C263.916 912.993 264.648 915.135 266.111 916.742C266.802 917.498 267.645 918.103 268.585 918.518C269.525 918.933 270.543 919.149 271.572 919.152C272.601 919.155 273.62 918.945 274.562 918.536C275.505 918.127 276.352 917.527 277.047 916.775C278.51 915.191 279.242 913.038 279.242 910.316C279.242 907.549 278.522 905.395 277.082 903.854C275.643 902.314 273.819 901.542 271.613 901.537C269.318 901.537 267.461 902.295 266.043 903.813C264.625 905.33 263.916 907.498 263.916 910.316Z" fill="#F7A70A"/>
<path d="M313.142 894.253V902.923C313.143 903.023 313.123 903.123 313.081 903.215C313.04 903.307 312.978 903.388 312.902 903.454C312.826 903.521 312.736 903.569 312.638 903.598C312.541 903.626 312.439 903.633 312.338 903.618C311.532 903.495 310.717 903.435 309.9 903.44C307.605 903.44 305.726 904.176 304.263 905.648C302.8 907.121 302.068 909.397 302.068 912.478V926.312C302.068 926.496 301.994 926.673 301.863 926.803C301.731 926.934 301.553 927.007 301.367 927.007H292.501C292.316 927.007 292.137 926.934 292.006 926.803C291.874 926.673 291.8 926.496 291.8 926.312V894.406C291.8 894.222 291.874 894.045 292.006 893.914C292.137 893.784 292.316 893.711 292.501 893.711H301.028C301.214 893.711 301.392 893.784 301.524 893.914C301.655 894.045 301.729 894.222 301.729 894.406V895.88C301.73 896.02 301.773 896.157 301.853 896.273C301.934 896.389 302.048 896.478 302.18 896.528C302.312 896.578 302.457 896.587 302.595 896.554C302.732 896.521 302.857 896.448 302.952 896.343C303.643 895.57 304.491 894.95 305.441 894.524C307.003 893.789 308.709 893.401 310.438 893.386C311.161 893.379 311.883 893.446 312.593 893.586C312.747 893.619 312.885 893.704 312.985 893.825C313.084 893.946 313.14 894.097 313.142 894.253V894.253Z" fill="#F7A70A"/>
<path d="M316.109 917.428L323.445 916.133C323.624 916.102 323.807 916.141 323.956 916.242C324.106 916.342 324.211 916.495 324.25 916.67C324.436 917.627 324.912 918.504 325.614 919.185C326.492 920.056 327.763 920.491 329.429 920.49C330.69 920.49 331.657 920.211 332.332 919.653C332.649 919.414 332.905 919.105 333.08 918.75C333.256 918.396 333.346 918.006 333.344 917.611C333.344 916.275 332.242 915.36 330.037 914.867L326.187 913.996C322.759 913.284 320.239 912.023 318.626 910.214C317.02 908.444 316.151 906.135 316.195 903.755C316.195 900.676 317.421 898.064 319.874 895.921C322.327 893.779 325.399 892.707 329.09 892.707C333.453 892.707 336.725 893.745 338.907 895.819C340.889 897.706 342.065 899.747 342.434 901.942C342.462 902.122 342.419 902.305 342.313 902.454C342.207 902.602 342.046 902.703 341.866 902.735L334.709 904.031C334.533 904.061 334.352 904.025 334.203 903.928C334.053 903.831 333.947 903.681 333.905 903.509C333.718 902.635 333.274 901.835 332.629 901.21C331.84 900.451 330.704 900.072 329.219 900.072C328.296 900.049 327.391 900.331 326.648 900.874C326.309 901.107 326.033 901.419 325.844 901.783C325.656 902.147 325.561 902.551 325.568 902.96C325.568 904.299 326.446 905.125 328.202 905.437L332.657 906.306C336.035 906.971 338.605 908.238 340.368 910.107C342.086 911.89 343.031 914.27 342.999 916.735C342.999 919.816 341.831 922.46 339.494 924.668C337.156 926.876 333.87 927.981 329.635 927.982C327.16 927.982 324.966 927.625 323.053 926.912C321.139 926.198 319.676 925.271 318.663 924.131C317.736 923.12 316.963 921.981 316.368 920.749C315.982 919.939 315.706 919.082 315.545 918.2C315.522 918.024 315.568 917.847 315.673 917.703C315.777 917.56 315.933 917.462 316.109 917.428V917.428Z" fill="#F7A70A"/>
<path d="M214.215 893.759H206.731C206.345 893.759 206.032 894.07 206.032 894.452V901.873C206.032 902.256 206.345 902.566 206.731 902.566H214.215C214.601 902.566 214.914 902.256 214.914 901.873V894.452C214.914 894.07 214.601 893.759 214.215 893.759Z" fill="#F7A70A"/>
<path d="M242.006 914.278C239.902 920.102 230.471 919.905 228.132 914.237C228.063 914.079 227.937 913.952 227.78 913.881C227.622 913.809 227.444 913.798 227.278 913.85C223.709 914.951 220.624 915.901 218.962 916.424C218.87 916.454 218.784 916.501 218.712 916.565C218.639 916.628 218.58 916.706 218.539 916.793C218.498 916.88 218.475 916.975 218.473 917.071C218.471 917.167 218.488 917.263 218.525 917.352C221.239 923.841 227.963 928.123 235.239 927.994C242.644 928.191 249.03 923.604 251.051 917.078C251.105 916.902 251.086 916.711 250.999 916.549C250.911 916.386 250.762 916.265 250.584 916.211L242.859 913.868C242.691 913.818 242.51 913.833 242.352 913.909C242.194 913.985 242.071 914.117 242.006 914.278V914.278Z" fill="#F7A70A"/>
<path d="M135.459 583H97.5408C95.5853 583 94 584.656 94 586.698V626.302C94 628.344 95.5853 630 97.5408 630H135.459C137.415 630 139 628.344 139 626.302V586.698C139 584.656 137.415 583 135.459 583Z" fill="#F7A70A"/>
<rect x="755" y="310" width="99" height="99" rx="8" fill="#FFF8EB"/>
<mask id="mask0_41_113" style="mask-type:alpha" maskUnits="userSpaceOnUse" x="763" y="318" width="83" height="83">
<rect x="763" y="318" width="83" height="83" fill="#F7A70A"/>
</mask>
<g mask="url(#mask0_41_113)">
<path d="M776.833 390.625C774.931 390.625 773.303 389.948 771.948 388.593C770.594 387.239 769.917 385.61 769.917 383.708V342.208H776.833V383.708H828.708V390.625H776.833ZM790.667 376.792C788.764 376.792 787.136 376.114 785.782 374.76C784.427 373.405 783.75 371.777 783.75 369.875V328.375H842.542V369.875C842.542 371.777 841.864 373.405 840.51 374.76C839.155 376.114 837.527 376.792 835.625 376.792H790.667ZM790.667 369.875H835.625V335.292H790.667V369.875ZM797.583 359.5H811.417V342.208H797.583V359.5ZM814.875 359.5H828.708V352.583H814.875V359.5ZM814.875 349.125H828.708V342.208H814.875V349.125Z" fill="#F7A70A"/>
</g>
<g clip-path="url(#clip1_41_113)">
<path d="M93.5807 117.599C89.9841 129.395 86.2738 140.77 82.329 153.788C75.8274 148.967 74.2743 142.379 75.4398 136.649C78.9362 119.46 82.8545 102.158 88.266 85.3625C91.32 75.743 100.099 74.7643 106.861 82.2258C118.324 94.5352 129.057 107.49 140.212 120.333C140.862 121.064 141.779 121.95 141.739 122.638C142 125.278 141.571 127.876 141.41 130.629C139.073 130.347 136.12 131.132 134.667 129.938C129.505 125.89 124.918 121.463 120.178 117.304C117.539 115.069 115.323 112.722 110.268 111.582C111.366 116.485 112.309 121.654 113.407 126.556C140.493 226.853 228.409 295.397 332.486 298.216C345.898 298.49 359.123 297.233 372.575 296.818C377.29 296.694 381.85 296.837 386.564 296.713C387.059 297.71 387.133 298.82 387.628 299.817C385.438 301.754 383.322 304.801 380.523 305.319C371.396 307.52 362.269 309.72 352.801 310.657C258.653 320.328 165.173 268.847 120.153 181.673C111.577 164.983 105.993 146.82 99.2582 129.414C97.8121 125.733 97.0557 122.095 96.0314 118.303C95.6498 117.727 94.6922 117.529 93.5807 117.599Z" fill="#F7A70A"/>
</g>
</g>
<defs>
<clipPath id="clip0_41_113">
<rect width="1300" height="1000" fill="white"/>
</clipPath>
<clipPath id="clip1_41_113">
<rect width="366.873" height="118.751" fill="white" transform="translate(94.3755 74) rotate(30)"/>
</clipPath>
</defs>
</svg>
