<svg width="16" height="46" viewBox="0 0 16 46" fill="none" xmlns="http://www.w3.org/2000/svg">
<path d="M7.95001 45.7625C11.8643 45.7625 15.0375 42.6453 15.0375 38.8C15.0375 34.9547 11.8643 31.8375 7.95001 31.8375C4.03569 31.8375 0.862495 34.9547 0.862495 38.8C0.862495 42.6453 4.03569 45.7625 7.95001 45.7625Z" fill="#04041F"/>
<path d="M8.02501 40.0375L7.35 39.4125L4.37499 41.9625H11.675L8.69998 39.4125L8.02501 40.0375Z" fill="white"/>
<path d="M11.975 41.7625V36.35L8.95 39.175L11.975 41.7625Z" fill="white"/>
<path d="M11.725 36.1125L8.68751 38.95L8.43749 39.1875L8.02501 39.575L7.61249 39.1875L7.36251 38.95L4.32498 36.1125H11.725Z" fill="white"/>
<path d="M4.08752 36.35V41.7625L7.09998 39.175L4.08752 36.35Z" fill="white"/>
<path d="M7.95 14.0125C11.8643 14.0125 15.0375 10.8953 15.0375 7.05002C15.0375 3.20474 11.8643 0.0875244 7.95 0.0875244C4.03569 0.0875244 0.862488 3.20474 0.862488 7.05002C0.862488 10.8953 4.03569 14.0125 7.95 14.0125Z" fill="#04041F"/>
<path d="M7.58751 3.08752L8.37502 4.97503L7.5375 5.12502C7.2375 5.18752 7.06253 5.50003 7.17503 5.77503L8.22503 8.26252C8.33753 8.53752 8.70001 8.65002 8.95001 8.47502L9.65001 8.01253L10.4375 9.90002L9.26251 10.375C9.26251 10.375 9.17503 10.4125 9.12503 10.425C8.33753 10.6625 7.47501 10.275 7.15001 9.51252L5.52502 5.63753C5.20002 4.87503 5.53753 4.00002 6.27503 3.62502C6.27503 3.62502 6.30003 3.61252 6.31253 3.61252L7.58751 3.10003V3.08752Z" fill="white"/>
<path d="M6.31252 3.60004C6.31252 3.60004 6.28752 3.60003 6.27502 3.61253L6.31252 3.60004Z" fill="#00B4EA"/>
<path d="M9.2625 10.375L9.12502 10.425C9.12502 10.425 9.2125 10.3875 9.2625 10.375Z" fill="#00B4EA"/>
<path d="M7.975 24.3876C8.7551 24.3876 9.3875 23.7552 9.3875 22.9751C9.3875 22.195 8.7551 21.5626 7.975 21.5626C7.1949 21.5626 6.56249 22.195 6.56249 22.9751C6.56249 23.7552 7.1949 24.3876 7.975 24.3876Z" fill="#04041F"/>
<path d="M8.3625 13.6876H7.5875V32.2626H8.3625V13.6876Z" fill="#04041F"/>
</svg>
