<svg width="97" height="39" viewBox="0 0 97 39" fill="none" xmlns="http://www.w3.org/2000/svg">
<mask id="mask0_1_111" style="mask-type:luminance" maskUnits="userSpaceOnUse" x="0" y="0" width="97" height="39">
<path d="M96.7 0.8125H0.349976V38.8875H96.7V0.8125Z" fill="white"/>
</mask>
<g mask="url(#mask0_1_111)">
<mask id="mask1_1_111" style="mask-type:luminance" maskUnits="userSpaceOnUse" x="0" y="0" width="97" height="39">
<path d="M96.7 0.8125H0.349976V38.8875H96.7V0.8125Z" fill="white"/>
</mask>
<g mask="url(#mask1_1_111)">
<path d="M0.350026 13.725C0.350026 9.60002 0.350026 5.47502 0.350026 1.35002C0.350026 0.750019 0.27503 0.825022 0.86253 0.825022C1.81253 0.825022 2.75002 0.825022 3.70002 0.825022C4.05002 0.825022 4.05002 0.825027 4.05002 1.16253C4.05002 1.26253 4.05002 1.36252 4.05002 1.45002C4.05002 6.27502 4.05002 11.1 4.05002 15.9375C4.05002 16.075 4.05002 16.2 4.05002 16.3375C4.05002 16.3625 4.06254 16.375 4.07504 16.4C4.08754 16.425 4.13752 16.4 4.17502 16.375C4.23752 16.3125 4.30002 16.2625 4.36252 16.2C5.85002 14.7625 7.58752 13.725 9.56252 13.0875C10.275 12.8625 11.0125 12.7 11.7625 12.5875C12.575 12.475 13.3875 12.425 14.2 12.475C16.8125 12.6125 19.1875 13.425 21.3125 14.975C23.875 16.85 25.5625 19.325 26.3875 22.3875C26.55 23.0125 26.6625 23.6375 26.725 24.2875C26.8125 25.0875 26.825 25.8875 26.7625 26.6875C26.675 27.95 26.4 29.175 25.95 30.3625C24.525 34.125 21.35 37.2375 17.1125 38.425C16.3875 38.625 15.65 38.7625 14.9 38.8375C14.1625 38.9125 13.425 38.925 12.6875 38.875C11.3375 38.7875 10.025 38.4875 8.76254 37.9875C4.87504 36.45 1.92503 33.1625 0.825032 29.125C0.612532 28.35 0.475011 27.5625 0.412511 26.7625C0.375011 26.2875 0.362538 25.8125 0.362538 25.35C0.362538 21.475 0.362538 17.6125 0.362538 13.7375L0.350026 13.725ZM13.625 35.2125C14.3625 35.2 15.15 35.125 15.9125 34.925C18.275 34.3 20.15 32.975 21.5125 30.9625C22.3625 29.7125 22.8625 28.3375 23.05 26.85C23.125 26.2 23.15 25.55 23.0875 24.8875C23.0125 24.0125 22.825 23.1625 22.5125 22.3375C21.1375 18.675 17.6625 16.25 13.9125 16.15C13.0375 16.125 12.1625 16.2 11.3125 16.4125C9.10001 16.975 7.31253 18.1625 5.93753 19.975C5.30003 20.8125 4.82504 21.7375 4.50004 22.7375C4.16254 23.7625 4.02502 24.8125 4.05002 25.8875C4.05002 26.6125 4.16253 27.3375 4.33753 28.0375C5.33753 31.9625 8.92502 35.175 13.625 35.2125Z" fill="black"/>
<path d="M30.625 25.7C30.625 21.4625 30.625 17.2375 30.625 13C30.625 12.4125 30.55 12.475 31.15 12.475C32.1 12.475 33.0375 12.475 33.9875 12.475C34.35 12.475 34.3375 12.4875 34.3375 12.8125C34.3375 13.875 34.3375 14.95 34.3375 16.0125C34.3375 16.1375 34.3375 16.25 34.35 16.375C34.35 16.3875 34.3751 16.4125 34.4001 16.425H34.425C34.5125 16.35 34.5875 16.275 34.6625 16.2C35.7625 15.1375 37.0125 14.2875 38.4 13.65C39.45 13.175 40.55 12.8375 41.7 12.65C42.45 12.525 43.1875 12.475 43.95 12.475C44.0625 12.475 44.1625 12.475 44.275 12.4875C44.325 12.4875 44.375 12.5375 44.375 12.575C44.375 12.6375 44.375 12.7 44.375 12.75C44.375 13.7875 44.375 14.8375 44.375 15.875C44.375 15.925 44.375 15.975 44.375 16.025C44.375 16.1 44.3375 16.1375 44.2625 16.15C44.225 16.15 44.1876 16.15 44.1501 16.15C44.0251 16.15 43.9126 16.15 43.7876 16.15C41.8501 16.15 40.075 16.7125 38.4875 17.8C36.5125 19.1625 35.2125 21.0125 34.6 23.325C34.4125 24.0375 34.3126 24.775 34.3251 25.5125C34.3251 29.7875 34.3251 34.075 34.3251 38.35C34.3251 38.4875 34.3251 38.6125 34.3251 38.75C34.3251 38.8 34.2751 38.8375 34.2376 38.85C34.1751 38.85 34.1125 38.85 34.0625 38.85C33.0125 38.85 31.95 38.85 30.9 38.85C30.85 38.85 30.8 38.85 30.75 38.85C30.6875 38.85 30.6376 38.8 30.6376 38.725C30.6376 38.5875 30.6376 38.4625 30.6376 38.325C30.6376 34.1 30.6376 29.8875 30.6376 25.6625" fill="black"/>
<path d="M51.8875 19.8375C51.8875 26 51.8875 32.1625 51.8875 38.325C51.8875 38.475 51.8875 38.6125 51.8875 38.7625C51.8875 38.825 51.8375 38.875 51.7625 38.875C51.7125 38.875 51.6625 38.875 51.6125 38.875C50.5625 38.875 49.5 38.875 48.45 38.875C48.1875 38.875 48.1875 38.875 48.1875 38.6125C48.1875 38.5375 48.1875 38.4625 48.1875 38.4C48.1875 26.0375 48.1875 13.6875 48.1875 1.32502C48.1875 1.18752 48.1875 1.06252 48.1875 0.925024C48.1875 0.887524 48.2375 0.837524 48.2875 0.837524C48.375 0.837524 48.4625 0.837524 48.5375 0.837524C49.5375 0.837524 50.525 0.837524 51.525 0.837524C51.625 0.837524 51.7125 0.83752 51.8125 0.86252C51.825 0.86252 51.85 0.887521 51.8625 0.912521C51.8625 0.950021 51.875 0.987526 51.875 1.02503C51.875 1.16253 51.875 1.28753 51.875 1.42503C51.875 7.57503 51.875 13.725 51.875 19.875" fill="black"/>
<path d="M61.3875 21.5875C61.3875 20.9875 61.3875 20.4 61.3875 19.8C61.3875 19.7125 61.3875 19.625 61.4 19.55C61.4 19.525 61.4375 19.4875 61.4625 19.475C61.5 19.4625 61.5626 19.45 61.6001 19.45C62.0626 19.45 62.525 19.45 62.9875 19.45C63.225 19.45 63.4751 19.4875 63.7001 19.5625C64.0251 19.675 64.2751 19.8625 64.4751 20.1375C64.6876 20.4375 64.8 20.7875 64.85 21.15C64.8875 21.45 64.8875 21.75 64.85 22.0625C64.8125 22.3625 64.725 22.65 64.575 22.925C64.325 23.3625 63.9501 23.625 63.4626 23.725C63.3001 23.7625 63.125 23.7875 62.9625 23.7875C62.5125 23.7875 62.0625 23.7875 61.6125 23.7875C61.5875 23.7875 61.5625 23.7875 61.5375 23.7875C61.4375 23.7875 61.3875 23.7375 61.3875 23.625C61.3875 23.525 61.3875 23.425 61.3875 23.3375C61.3875 22.75 61.3875 22.175 61.3875 21.5875ZM61.9375 21.6C61.9375 22.0375 61.9375 22.475 61.9375 22.9125C61.9375 23.0125 61.9375 23.1 61.9375 23.2C61.9375 23.25 61.9875 23.2875 62.0375 23.2875C62.4125 23.2875 62.7876 23.2875 63.1626 23.2875C63.1626 23.2875 63.1875 23.2875 63.2 23.2875C63.6625 23.2125 64.0001 22.975 64.1751 22.525C64.2001 22.45 64.2376 22.3625 64.2501 22.2875C64.3501 21.8375 64.3376 21.4 64.2501 20.95C64.2251 20.8375 64.175 20.7125 64.125 20.6125C63.975 20.3 63.7375 20.1 63.4 20C63.2875 19.9625 63.1625 19.95 63.0375 19.95C62.725 19.95 62.4125 19.95 62.0875 19.95C62.0625 19.95 62.0375 19.95 62.0125 19.95C61.975 19.95 61.925 20 61.925 20.05C61.925 20.15 61.925 20.2375 61.925 20.3375C61.925 20.7625 61.925 21.1875 61.925 21.6125" fill="black"/>
<path d="M96.6875 21.6375C96.6875 21.975 96.6376 22.2875 96.5126 22.6C96.2876 23.15 95.9126 23.5625 95.3376 23.7625C94.8251 23.9375 94.3125 23.9375 93.8 23.7625C93.2625 23.575 92.9001 23.2 92.6626 22.7C92.5626 22.5 92.5125 22.2875 92.475 22.075C92.4 21.6125 92.4251 21.15 92.6001 20.7125C92.8251 20.125 93.2125 19.7 93.8125 19.4875C94.3125 19.325 94.8126 19.325 95.3126 19.4875C95.7876 19.6375 96.125 19.95 96.375 20.375C96.5375 20.6625 96.6376 20.975 96.6626 21.3C96.6626 21.4125 96.6626 21.5125 96.6751 21.625M93.0001 21.6625C93.0001 21.6625 93 21.8375 93.025 21.9625C93.0625 22.2875 93.1751 22.6 93.3876 22.8625C93.6126 23.15 93.9125 23.325 94.275 23.3625C94.4625 23.3875 94.6626 23.3875 94.8501 23.3625C95.1626 23.325 95.4251 23.1875 95.6376 22.9625C95.8001 22.7875 95.9125 22.6 95.9875 22.375C96.15 21.875 96.15 21.375 95.9875 20.875C95.9375 20.7125 95.8625 20.5625 95.7625 20.425C95.525 20.0875 95.2001 19.9 94.7876 19.85C94.6001 19.825 94.4251 19.8375 94.2501 19.85C93.9251 19.9 93.6501 20.0375 93.4376 20.2875C93.2751 20.475 93.1625 20.6875 93.0875 20.9125C93.0125 21.1375 93.0001 21.3625 93.0001 21.65" fill="black"/>
<path d="M84.1375 24.0501C84.225 24.0876 84.3125 24.1126 84.4 24.1501C84.625 24.2501 84.675 24.55 84.525 24.7375C84.4625 24.8125 84.375 24.8626 84.2875 24.9001C84.125 24.9501 83.95 24.9751 83.7875 24.9376C83.6625 24.9126 83.525 24.9001 83.4125 24.8126C83.375 24.7876 83.375 24.7501 83.3875 24.7126C83.4 24.6876 83.425 24.6501 83.4625 24.6376C83.4875 24.6376 83.5375 24.6376 83.5625 24.6376C83.7 24.6876 83.85 24.6876 84 24.6751C84.0375 24.6751 84.075 24.6625 84.1 24.65C84.175 24.625 84.225 24.5375 84.2125 24.475C84.2 24.4125 84.125 24.3375 84.0625 24.3375C84 24.3375 83.9375 24.3375 83.8875 24.3375C83.85 24.3375 83.8125 24.3375 83.775 24.3375C83.75 24.3375 83.7125 24.3001 83.7 24.2751C83.675 24.2501 83.675 24.2126 83.7 24.1751C83.75 24.1251 83.8 24.0751 83.85 24.0126C83.875 23.9876 83.8875 23.9501 83.9125 23.9251C83.9 23.9001 83.8875 23.8751 83.8625 23.8751C83.7875 23.8501 83.725 23.8376 83.65 23.8251C83.1625 23.7251 82.7875 23.4501 82.5125 23.0376C82.325 22.7626 82.2125 22.4626 82.1625 22.1251C82.0875 21.6501 82.1125 21.1875 82.2625 20.725C82.325 20.55 82.4 20.3875 82.5 20.2375C82.8375 19.725 83.3125 19.4501 83.9125 19.3751C84.1625 19.3501 84.425 19.3501 84.675 19.4126C85.325 19.5626 85.7375 19.9626 85.9 20.6126C85.9125 20.6876 85.8875 20.7251 85.8125 20.7376C85.7 20.7376 85.6 20.7376 85.4875 20.7376C85.4375 20.7376 85.4 20.7001 85.375 20.6501C85.35 20.6001 85.3375 20.5626 85.325 20.5126C85.15 20.1251 84.85 19.9126 84.4375 19.8501C84.275 19.8251 84.125 19.8251 83.9625 19.8501C83.5875 19.8876 83.3 20.0626 83.075 20.3501C82.9125 20.5626 82.8 20.8126 82.75 21.0751C82.675 21.4876 82.675 21.9001 82.7875 22.3001C82.8625 22.5751 83 22.8126 83.2125 23.0126C83.425 23.2251 83.6875 23.35 83.9875 23.3625C84.1375 23.3625 84.275 23.3625 84.425 23.3625C84.725 23.3375 84.975 23.1876 85.1625 22.9501C85.2875 22.7876 85.375 22.6001 85.4125 22.3876C85.4125 22.3376 85.425 22.2875 85.45 22.25C85.45 22.2375 85.4875 22.2126 85.5 22.2126C85.5625 22.2126 85.625 22.2 85.675 22.2C86 22.2 86 22.2001 85.925 22.5376C85.875 22.7501 85.7875 22.95 85.675 23.1375C85.4625 23.4875 85.15 23.7 84.75 23.8C84.6375 23.825 84.5125 23.8501 84.3875 23.8626C84.275 23.8751 84.1875 23.9376 84.125 24.0501" fill="black"/>
<path d="M56.4125 21.6125C56.4125 21.025 56.4125 20.45 56.4125 19.8625C56.4125 19.7625 56.4125 19.6625 56.4125 19.575C56.4125 19.5125 56.4625 19.4625 56.5375 19.4625C56.6 19.4625 56.6625 19.4625 56.725 19.4625C57.5375 19.4625 58.3501 19.4625 59.1626 19.4625C59.2376 19.4625 59.3125 19.4625 59.375 19.4625C59.4125 19.4625 59.4625 19.525 59.4625 19.5625C59.4625 19.6125 59.4625 19.6625 59.4625 19.7125C59.4625 19.9 59.4625 19.9375 59.2375 19.9375C58.625 19.9375 58 19.9375 57.3875 19.9375C57.275 19.9375 57.1751 19.9375 57.0626 19.9375C57.0251 19.9375 56.9751 19.9875 56.9751 20.0375C56.9751 20.0625 56.9751 20.0875 56.9751 20.1125C56.9751 20.4375 56.9751 20.7625 56.9751 21.1C56.9751 21.1375 56.9751 21.175 56.9876 21.2125C56.9876 21.25 57.05 21.3 57.0875 21.3C57.1875 21.3 57.2751 21.3 57.3751 21.3C57.8626 21.3 58.35 21.3 58.825 21.3C58.925 21.3 59.025 21.3 59.1125 21.3C59.1375 21.3 59.1625 21.3 59.1875 21.325C59.2125 21.325 59.225 21.3625 59.2375 21.375C59.2375 21.4 59.2375 21.425 59.2375 21.45C59.25 21.75 59.2375 21.75 58.95 21.7625C58.4125 21.7625 57.8875 21.7625 57.35 21.7625C57.25 21.7625 57.1501 21.7625 57.0626 21.7625C57.0376 21.7625 57.0001 21.8 56.9876 21.825C56.9751 21.85 56.9625 21.9 56.9625 21.925C56.9625 22.3125 56.9625 22.7 56.9625 23.0875C56.9625 23.125 56.9626 23.1625 56.9876 23.1875C56.9876 23.2125 57.0125 23.2375 57.0375 23.2375C57.1125 23.2375 57.175 23.2625 57.25 23.2625C57.8625 23.2625 58.4876 23.2625 59.1001 23.2625C59.2126 23.2625 59.3125 23.2625 59.425 23.2625C59.4875 23.2625 59.525 23.3125 59.5375 23.3875C59.5375 23.4375 59.5375 23.4875 59.5375 23.5375C59.5375 23.725 59.525 23.7625 59.3125 23.7625C58.4125 23.7625 57.5125 23.7625 56.625 23.7625C56.575 23.7625 56.525 23.7625 56.4875 23.7375C56.4625 23.7375 56.4376 23.7 56.4376 23.6875C56.4376 23.6 56.4125 23.525 56.4125 23.4375C56.4125 22.825 56.4125 22.2 56.4125 21.5875" fill="black"/>
<path d="M75.5375 20.7125C75.3875 20.7625 75.2375 20.7375 75.0875 20.7375C75 20.675 74.9875 20.5875 74.9625 20.5125C74.8375 20.225 74.6125 20.0125 74.3125 19.925C73.925 19.8125 73.55 19.8125 73.175 19.9875C73 20.075 72.85 20.2 72.725 20.35C72.6 20.5125 72.5 20.7 72.4375 20.8875C72.3 21.3625 72.3 21.8375 72.4375 22.325C72.5 22.5375 72.6 22.725 72.7375 22.9C72.9875 23.2 73.2875 23.3625 73.675 23.3875C73.8 23.3875 73.9125 23.3875 74.0375 23.3875C74.3875 23.3625 74.65 23.2 74.85 22.9C74.95 22.75 75.025 22.575 75.05 22.4C75.075 22.2375 75.1 22.2125 75.3 22.2125C75.375 22.2125 75.45 22.2125 75.5125 22.2125C75.575 22.2125 75.625 22.2625 75.6125 22.3375C75.575 22.6 75.5 22.85 75.3625 23.0875C75.175 23.4125 74.9 23.65 74.5375 23.7625C74.05 23.925 73.5625 23.925 73.075 23.7625C72.6875 23.625 72.3875 23.3625 72.15 23.025C71.975 22.7625 71.8625 22.4625 71.8125 22.15C71.7375 21.675 71.75 21.2125 71.9 20.75C71.95 20.5875 72.025 20.4375 72.1125 20.2875C72.475 19.7125 73 19.4125 73.675 19.375C73.925 19.3625 74.1875 19.375 74.425 19.45C75.025 19.6375 75.4125 20.0375 75.525 20.675C75.525 20.675 75.525 20.7 75.525 20.725" fill="black"/>
<path d="M80.2375 23.775C80.05 23.375 79.95 22.925 79.7625 22.5125C79.725 22.5125 79.675 22.4876 79.625 22.4876C79.1375 22.4876 78.65 22.4876 78.175 22.4876C78.1375 22.4876 78.1 22.4875 78.0625 22.5125C78.0375 22.5625 78 22.6125 77.9875 22.6625C77.8875 22.925 77.8 23.1875 77.7125 23.45C77.6875 23.525 77.65 23.6125 77.625 23.6875C77.6 23.775 77.5375 23.8 77.45 23.8C77.35 23.8 77.25 23.8 77.1625 23.8C77.0875 23.8 77.05 23.75 77.075 23.6875C77.125 23.525 77.1875 23.3626 77.25 23.2126C77.6625 22.0876 78.075 20.9625 78.4875 19.8375C78.525 19.75 78.55 19.65 78.5875 19.5625C78.6125 19.5125 78.65 19.4875 78.7 19.4875C78.85 19.4875 78.9875 19.4875 79.1375 19.4875C79.1875 19.4875 79.225 19.525 79.25 19.575C79.275 19.6375 79.3125 19.7126 79.3375 19.7751C79.8 21.0251 80.2625 22.2751 80.725 23.5251C80.75 23.5876 80.775 23.6626 80.7875 23.7376C80.7875 23.7626 80.7625 23.8125 80.725 23.8125C80.5625 23.825 80.4125 23.8375 80.2375 23.8125M78.9 22.0625C79.1 22.0625 79.2875 22.0625 79.4875 22.0625C79.55 22.0625 79.5875 22 79.5625 21.925C79.3625 21.3375 79.1625 20.7626 78.9625 20.1751C78.9625 20.1501 78.925 20.1375 78.9 20.15C78.875 20.15 78.8625 20.175 78.85 20.1875C78.65 20.75 78.45 21.3001 78.2625 21.8626C78.2125 21.9876 78.2625 22.0501 78.3875 22.0501C78.5625 22.0501 78.725 22.0501 78.9 22.0501" fill="black"/>
<path d="M91.1 23.7625C90.95 23.8125 90.7875 23.7875 90.6375 23.775C90.6125 23.775 90.575 23.75 90.55 23.7125C90.525 23.675 90.5 23.625 90.4875 23.5875C90.3875 23.3125 90.3 23.0375 90.2 22.7625C90.1625 22.675 90.125 22.5875 90.0875 22.4875C90.0375 22.4875 89.9875 22.4625 89.9375 22.4625C89.4625 22.4625 88.9875 22.4625 88.5125 22.4625C88.4 22.4625 88.3375 22.5125 88.3 22.625C88.2 22.9 88.1 23.175 88.0125 23.45C87.875 23.825 87.925 23.7875 87.525 23.7875C87.475 23.7875 87.4375 23.775 87.3875 23.7625C87.3625 23.6625 87.4 23.5875 87.4375 23.5125C87.575 23.1375 87.7126 22.7625 87.8501 22.3875C88.1626 21.525 88.4875 20.6625 88.8 19.8C88.8375 19.7125 88.875 19.625 88.9125 19.5375C88.925 19.5125 88.9625 19.4875 89 19.475C89.05 19.4625 89.1 19.4625 89.15 19.4625C89.5875 19.4625 89.525 19.4125 89.6875 19.8375C90.1375 21.0375 90.575 22.25 91.025 23.45C91.0625 23.55 91.1125 23.65 91.1 23.775M89.2375 22.0375C89.2375 22.0375 89.2375 22.0375 89.2375 22.025C89.425 22.025 89.625 22.025 89.8125 22.025C89.8625 22.025 89.9 21.9625 89.8875 21.925C89.8625 21.825 89.825 21.7125 89.7875 21.6125C89.6375 21.175 89.5 20.7375 89.35 20.3C89.3375 20.25 89.325 20.2125 89.3 20.1625C89.2875 20.125 89.2375 20.0875 89.225 20.1125C89.2125 20.125 89.1876 20.1375 89.1751 20.1625C88.9751 20.725 88.7875 21.275 88.5875 21.8375C88.5875 21.8625 88.5875 21.8875 88.575 21.9125C88.575 21.9625 88.6 22.0125 88.65 22.0125C88.8375 22.0125 89.0375 22.025 89.225 22.0375" fill="black"/>
<path d="M66.675 21.075C66.675 20.6375 66.675 20.2 66.675 19.7625C66.675 19.6875 66.675 19.6125 66.6875 19.55C66.6875 19.525 66.7375 19.4875 66.7625 19.475C66.8625 19.475 66.95 19.4625 67.05 19.4625C67.175 19.4625 67.2 19.525 67.2 19.625C67.2 19.7375 67.2 19.8375 67.2 19.95C67.2 20.6875 67.2 21.425 67.2 22.175C67.2 22.325 67.2001 22.4625 67.2251 22.6125C67.2876 23.0875 67.6125 23.3 67.9875 23.375C68.2 23.4125 68.425 23.4125 68.6375 23.375C69.0125 23.3125 69.275 23.1 69.375 22.7125C69.4125 22.575 69.4126 22.45 69.4126 22.3125C69.4126 21.975 69.4126 21.6375 69.4126 21.2875C69.4126 20.775 69.4126 20.2625 69.4126 19.7625C69.4126 19.6875 69.4125 19.6125 69.425 19.55C69.425 19.525 69.475 19.4875 69.5 19.4875C69.6125 19.4875 69.7125 19.4875 69.825 19.4875C69.8875 19.4875 69.9375 19.55 69.9375 19.6125C69.9375 19.7 69.9375 19.7875 69.9375 19.8625C69.9375 20.675 69.9375 21.4875 69.9375 22.3C69.9375 22.45 69.9375 22.5875 69.9125 22.7375C69.8625 23.125 69.675 23.425 69.3375 23.6125C69.2375 23.675 69.125 23.725 69.0125 23.7625C68.5125 23.925 68.0125 23.9125 67.5125 23.7625C67.475 23.7625 67.45 23.7375 67.4125 23.725C66.95 23.525 66.7 23.1625 66.6375 22.6625C66.6375 22.55 66.6375 22.45 66.6375 22.3375C66.6375 21.925 66.6375 21.5125 66.6375 21.1" fill="black"/>
<path d="M88.975 18.625C88.975 18.625 89.1 18.65 89.1875 18.675C89.275 18.7 89.3625 18.75 89.4625 18.775C89.575 18.8125 89.675 18.8 89.75 18.7C89.775 18.6625 89.825 18.6375 89.875 18.6375C89.9375 18.6375 90 18.6375 90.05 18.6375C90.075 18.6375 90.1125 18.6875 90.1 18.725C90.0875 18.7875 90.075 18.8375 90.0625 18.9C89.9875 19.1125 89.8 19.2125 89.575 19.175C89.475 19.15 89.3625 19.125 89.2625 19.0875C89.1875 19.0625 89.1 19.0375 89.025 19.0125C88.95 18.9875 88.875 19 88.8375 19.0625C88.75 19.1875 88.6375 19.175 88.5125 19.15C88.4875 19.15 88.4625 19.0875 88.4625 19.0625C88.4625 18.925 88.525 18.8125 88.6125 18.7125C88.7 18.625 88.8 18.6125 88.975 18.6125" fill="black"/>
</g>
</g>
</svg>
